<mxfile host="app.diagrams.net" agent="Mozilla/5.0 (Windows NT 10.0; Win64; x64) AppleWebKit/537.36 (KHTML, like Gecko) Chrome/134.0.0.0 Safari/537.36" version="26.1.1">
  <diagram name="Page-1" id="8OUuJkcaGUnxUxe7ry08">
    <mxGraphModel dx="5400" dy="1857" grid="1" gridSize="10" guides="1" tooltips="1" connect="1" arrows="1" fold="1" page="1" pageScale="1" pageWidth="1100" pageHeight="1700" math="0" shadow="0">
      <root>
        <mxCell id="0" />
        <mxCell id="1" parent="0" />
        <mxCell id="A7H-vvB8vNqfG-ey8gLz-1" value="&lt;font style=&quot;font-size: 18px;&quot;&gt;User&lt;/font&gt;" style="rounded=1;arcSize=10;whiteSpace=wrap;html=1;align=center;fontSize=14;fontStyle=1;fillColor=#fff2cc;strokeColor=#d6b656;gradientColor=#ffd966;" parent="1" vertex="1">
          <mxGeometry x="-550" y="1050" width="100" height="40" as="geometry" />
        </mxCell>
        <mxCell id="A7H-vvB8vNqfG-ey8gLz-2" value="&lt;font style=&quot;font-size: 18px;&quot;&gt;Event&lt;/font&gt;" style="rounded=1;arcSize=10;whiteSpace=wrap;html=1;align=center;fillColor=#f8cecc;gradientColor=#ea6b66;strokeColor=#b85450;fontSize=14;fontStyle=1" parent="1" vertex="1">
          <mxGeometry x="621" y="597" width="100" height="40" as="geometry" />
        </mxCell>
        <mxCell id="A7H-vvB8vNqfG-ey8gLz-3" value="&lt;font style=&quot;font-size: 18px;&quot;&gt;&lt;b style=&quot;&quot;&gt;Score&lt;/b&gt;&lt;/font&gt;" style="rounded=1;arcSize=10;whiteSpace=wrap;html=1;align=center;fillColor=#d5e8d4;gradientColor=#97d077;strokeColor=#82b366;" parent="1" vertex="1">
          <mxGeometry x="-90" y="620" width="100" height="40" as="geometry" />
        </mxCell>
        <mxCell id="A7H-vvB8vNqfG-ey8gLz-4" value="&lt;font style=&quot;font-size: 18px;&quot;&gt;Team&lt;/font&gt;" style="rounded=1;arcSize=10;whiteSpace=wrap;html=1;align=center;fillColor=#e6d0de;gradientColor=#d5739d;strokeColor=#996185;fontSize=14;fontStyle=1" parent="1" vertex="1">
          <mxGeometry x="-530" y="80" width="100" height="40" as="geometry" />
        </mxCell>
        <mxCell id="A7H-vvB8vNqfG-ey8gLz-5" value="&lt;font style=&quot;font-size: 18px;&quot;&gt;Venue&lt;/font&gt;" style="rounded=1;arcSize=10;whiteSpace=wrap;html=1;align=center;fillColor=#ffcd28;gradientColor=#ffa500;strokeColor=#d79b00;fontSize=14;fontStyle=1" parent="1" vertex="1">
          <mxGeometry x="618" y="80" width="100" height="40" as="geometry" />
        </mxCell>
        <mxCell id="A7H-vvB8vNqfG-ey8gLz-6" value="&lt;font style=&quot;font-size: 18px;&quot;&gt;Payment&lt;/font&gt;" style="rounded=1;arcSize=10;whiteSpace=wrap;html=1;align=center;fillColor=#a20025;fontColor=#ffffff;strokeColor=#6F0000;fontSize=14;fontStyle=1" parent="1" vertex="1">
          <mxGeometry x="618" y="1530" width="100" height="40" as="geometry" />
        </mxCell>
        <mxCell id="A7H-vvB8vNqfG-ey8gLz-7" value="&lt;font style=&quot;font-size: 18px;&quot;&gt;Sponsorship&lt;/font&gt;" style="rounded=1;arcSize=10;whiteSpace=wrap;html=1;align=center;fillColor=#008a00;fontColor=#ffffff;strokeColor=#005700;fontSize=14;fontStyle=1" parent="1" vertex="1">
          <mxGeometry x="-370" y="1530" width="150" height="40" as="geometry" />
        </mxCell>
        <mxCell id="A7H-vvB8vNqfG-ey8gLz-8" value="&lt;font style=&quot;font-size: 18px;&quot;&gt;Accommodation&lt;/font&gt;" style="rounded=1;arcSize=10;whiteSpace=wrap;html=1;align=center;fillColor=#dae8fc;gradientColor=#7ea6e0;strokeColor=#6c8ebf;fontSize=13;fontStyle=1" parent="1" vertex="1">
          <mxGeometry x="120" y="1050" width="160" height="40" as="geometry" />
        </mxCell>
        <mxCell id="A7H-vvB8vNqfG-ey8gLz-21" value="&lt;font style=&quot;font-size: 18px;&quot;&gt;Part of&lt;/font&gt;" style="shape=rhombus;perimeter=rhombusPerimeter;whiteSpace=wrap;html=1;align=center;fillColor=#f5f5f5;gradientColor=#b3b3b3;strokeColor=#666666;" parent="1" vertex="1">
          <mxGeometry x="-557" y="553" width="120" height="60" as="geometry" />
        </mxCell>
        <mxCell id="A7H-vvB8vNqfG-ey8gLz-22" value="" style="endArrow=none;html=1;rounded=0;entryX=0.5;entryY=1;entryDx=0;entryDy=0;" parent="1" source="A7H-vvB8vNqfG-ey8gLz-25" target="A7H-vvB8vNqfG-ey8gLz-2" edge="1">
          <mxGeometry relative="1" as="geometry">
            <mxPoint x="-26" y="960" as="sourcePoint" />
            <mxPoint x="134" y="960" as="targetPoint" />
          </mxGeometry>
        </mxCell>
        <mxCell id="A7H-vvB8vNqfG-ey8gLz-24" value="N" style="resizable=0;html=1;whiteSpace=wrap;align=right;verticalAlign=bottom;" parent="A7H-vvB8vNqfG-ey8gLz-22" connectable="0" vertex="1">
          <mxGeometry x="1" relative="1" as="geometry" />
        </mxCell>
        <mxCell id="A7H-vvB8vNqfG-ey8gLz-29" value="" style="endArrow=none;html=1;rounded=0;exitX=1;exitY=0.5;exitDx=0;exitDy=0;" parent="1" source="A7H-vvB8vNqfG-ey8gLz-1" target="A7H-vvB8vNqfG-ey8gLz-25" edge="1">
          <mxGeometry relative="1" as="geometry">
            <mxPoint x="-97" y="986" as="sourcePoint" />
            <mxPoint x="54" y="810" as="targetPoint" />
          </mxGeometry>
        </mxCell>
        <mxCell id="A7H-vvB8vNqfG-ey8gLz-30" value="M" style="resizable=0;html=1;whiteSpace=wrap;align=left;verticalAlign=bottom;" parent="A7H-vvB8vNqfG-ey8gLz-29" connectable="0" vertex="1">
          <mxGeometry x="-1" relative="1" as="geometry" />
        </mxCell>
        <mxCell id="A7H-vvB8vNqfG-ey8gLz-25" value="&lt;font style=&quot;font-size: 18px;&quot;&gt;Involved in&lt;/font&gt;" style="shape=rhombus;perimeter=rhombusPerimeter;whiteSpace=wrap;html=1;align=center;fillColor=#f5f5f5;gradientColor=#b3b3b3;strokeColor=#666666;" parent="1" vertex="1">
          <mxGeometry x="-56" y="880" width="120" height="60" as="geometry" />
        </mxCell>
        <mxCell id="A7H-vvB8vNqfG-ey8gLz-39" value="&lt;font style=&quot;font-size: 18px;&quot;&gt;Participates in&lt;/font&gt;" style="shape=rhombus;perimeter=rhombusPerimeter;whiteSpace=wrap;html=1;align=center;fillColor=#f5f5f5;gradientColor=#b3b3b3;strokeColor=#666666;" parent="1" vertex="1">
          <mxGeometry x="-70" y="220" width="190" height="60" as="geometry" />
        </mxCell>
        <mxCell id="A7H-vvB8vNqfG-ey8gLz-40" value="" style="endArrow=none;html=1;rounded=0;entryX=0.5;entryY=0;entryDx=0;entryDy=0;" parent="1" source="A7H-vvB8vNqfG-ey8gLz-44" target="A7H-vvB8vNqfG-ey8gLz-2" edge="1">
          <mxGeometry relative="1" as="geometry">
            <mxPoint x="154" y="610" as="sourcePoint" />
            <mxPoint x="164" y="750" as="targetPoint" />
          </mxGeometry>
        </mxCell>
        <mxCell id="A7H-vvB8vNqfG-ey8gLz-41" value="N" style="resizable=0;html=1;whiteSpace=wrap;align=right;verticalAlign=bottom;" parent="A7H-vvB8vNqfG-ey8gLz-40" connectable="0" vertex="1">
          <mxGeometry x="1" relative="1" as="geometry" />
        </mxCell>
        <mxCell id="A7H-vvB8vNqfG-ey8gLz-42" value="" style="endArrow=none;html=1;rounded=0;entryX=0.5;entryY=1;entryDx=0;entryDy=0;" parent="1" source="A7H-vvB8vNqfG-ey8gLz-44" target="A7H-vvB8vNqfG-ey8gLz-5" edge="1">
          <mxGeometry relative="1" as="geometry">
            <mxPoint x="234" y="720" as="sourcePoint" />
            <mxPoint x="395" y="731" as="targetPoint" />
          </mxGeometry>
        </mxCell>
        <mxCell id="A7H-vvB8vNqfG-ey8gLz-43" value="1" style="resizable=0;html=1;whiteSpace=wrap;align=right;verticalAlign=bottom;" parent="A7H-vvB8vNqfG-ey8gLz-42" connectable="0" vertex="1">
          <mxGeometry x="1" relative="1" as="geometry" />
        </mxCell>
        <mxCell id="A7H-vvB8vNqfG-ey8gLz-44" value="&lt;font style=&quot;font-size: 18px;&quot;&gt;Scheduled in&lt;/font&gt;" style="shape=rhombus;perimeter=rhombusPerimeter;whiteSpace=wrap;html=1;align=center;fillColor=#f5f5f5;gradientColor=#b3b3b3;strokeColor=#666666;" parent="1" vertex="1">
          <mxGeometry x="580" y="349" width="180" height="60" as="geometry" />
        </mxCell>
        <mxCell id="A7H-vvB8vNqfG-ey8gLz-54" value="" style="endArrow=none;html=1;rounded=0;entryX=0.368;entryY=1.012;entryDx=0;entryDy=0;entryPerimeter=0;" parent="1" source="A7H-vvB8vNqfG-ey8gLz-59" target="A7H-vvB8vNqfG-ey8gLz-3" edge="1">
          <mxGeometry relative="1" as="geometry">
            <mxPoint x="-156" y="910" as="sourcePoint" />
            <mxPoint x="-129.54000000000002" y="880" as="targetPoint" />
          </mxGeometry>
        </mxCell>
        <mxCell id="A7H-vvB8vNqfG-ey8gLz-55" value="N" style="resizable=0;html=1;whiteSpace=wrap;align=right;verticalAlign=bottom;" parent="A7H-vvB8vNqfG-ey8gLz-54" connectable="0" vertex="1">
          <mxGeometry x="1" relative="1" as="geometry" />
        </mxCell>
        <mxCell id="A7H-vvB8vNqfG-ey8gLz-59" value="&lt;font style=&quot;font-size: 18px;&quot;&gt;Assigns/Receives&lt;/font&gt;" style="shape=rhombus;perimeter=rhombusPerimeter;whiteSpace=wrap;html=1;align=center;fillColor=#f5f5f5;gradientColor=#b3b3b3;strokeColor=#666666;" parent="1" vertex="1">
          <mxGeometry x="-345" y="810" width="190" height="70" as="geometry" />
        </mxCell>
        <mxCell id="A7H-vvB8vNqfG-ey8gLz-60" value="" style="endArrow=none;html=1;rounded=0;entryX=1;entryY=0.75;entryDx=0;entryDy=0;" parent="1" source="A7H-vvB8vNqfG-ey8gLz-64" target="A7H-vvB8vNqfG-ey8gLz-3" edge="1">
          <mxGeometry relative="1" as="geometry">
            <mxPoint x="240" y="720" as="sourcePoint" />
            <mxPoint x="-49" y="760" as="targetPoint" />
          </mxGeometry>
        </mxCell>
        <mxCell id="A7H-vvB8vNqfG-ey8gLz-61" value="N" style="resizable=0;html=1;whiteSpace=wrap;align=right;verticalAlign=bottom;" parent="A7H-vvB8vNqfG-ey8gLz-60" connectable="0" vertex="1">
          <mxGeometry x="1" relative="1" as="geometry" />
        </mxCell>
        <mxCell id="A7H-vvB8vNqfG-ey8gLz-62" value="" style="endArrow=none;html=1;rounded=0;entryX=0;entryY=0.75;entryDx=0;entryDy=0;exitX=0.846;exitY=0.413;exitDx=0;exitDy=0;exitPerimeter=0;" parent="1" source="A7H-vvB8vNqfG-ey8gLz-64" target="A7H-vvB8vNqfG-ey8gLz-2" edge="1">
          <mxGeometry relative="1" as="geometry">
            <mxPoint x="24" y="820" as="sourcePoint" />
            <mxPoint x="4" y="830.5" as="targetPoint" />
          </mxGeometry>
        </mxCell>
        <mxCell id="A7H-vvB8vNqfG-ey8gLz-63" value="1" style="resizable=0;html=1;whiteSpace=wrap;align=right;verticalAlign=bottom;" parent="A7H-vvB8vNqfG-ey8gLz-62" connectable="0" vertex="1">
          <mxGeometry x="1" relative="1" as="geometry" />
        </mxCell>
        <mxCell id="A7H-vvB8vNqfG-ey8gLz-64" value="&lt;font style=&quot;font-size: 18px;&quot;&gt;Has&lt;/font&gt;" style="shape=rhombus;perimeter=rhombusPerimeter;whiteSpace=wrap;html=1;align=center;fillColor=#f5f5f5;gradientColor=#b3b3b3;strokeColor=#666666;" parent="1" vertex="1">
          <mxGeometry x="290" y="613" width="120" height="60" as="geometry" />
        </mxCell>
        <mxCell id="A7H-vvB8vNqfG-ey8gLz-67" value="" style="endArrow=none;html=1;rounded=0;entryX=0.75;entryY=1;entryDx=0;entryDy=0;exitX=0;exitY=0;exitDx=0;exitDy=0;" parent="1" source="A7H-vvB8vNqfG-ey8gLz-69" target="A7H-vvB8vNqfG-ey8gLz-4" edge="1">
          <mxGeometry relative="1" as="geometry">
            <mxPoint x="-310" y="435" as="sourcePoint" />
            <mxPoint x="-297" y="767" as="targetPoint" />
          </mxGeometry>
        </mxCell>
        <mxCell id="A7H-vvB8vNqfG-ey8gLz-68" value="1" style="resizable=0;html=1;whiteSpace=wrap;align=right;verticalAlign=bottom;" parent="A7H-vvB8vNqfG-ey8gLz-67" connectable="0" vertex="1">
          <mxGeometry x="1" relative="1" as="geometry" />
        </mxCell>
        <mxCell id="A7H-vvB8vNqfG-ey8gLz-69" value="&lt;font style=&quot;font-size: 18px;&quot;&gt;Receives&lt;/font&gt;" style="shape=rhombus;perimeter=rhombusPerimeter;whiteSpace=wrap;html=1;align=center;fillColor=#f5f5f5;gradientColor=#b3b3b3;strokeColor=#666666;" parent="1" vertex="1">
          <mxGeometry x="-371" y="320" width="120" height="60" as="geometry" />
        </mxCell>
        <mxCell id="A7H-vvB8vNqfG-ey8gLz-70" value="" style="endArrow=none;html=1;rounded=0;exitX=0.5;exitY=1;exitDx=0;exitDy=0;entryX=0.5;entryY=0;entryDx=0;entryDy=0;" parent="1" source="A7H-vvB8vNqfG-ey8gLz-74" target="A7H-vvB8vNqfG-ey8gLz-7" edge="1">
          <mxGeometry relative="1" as="geometry">
            <mxPoint x="-257.0000000000003" y="1329.02" as="sourcePoint" />
            <mxPoint x="-291" y="1450" as="targetPoint" />
          </mxGeometry>
        </mxCell>
        <mxCell id="A7H-vvB8vNqfG-ey8gLz-71" value="N" style="resizable=0;html=1;whiteSpace=wrap;align=right;verticalAlign=bottom;" parent="A7H-vvB8vNqfG-ey8gLz-70" connectable="0" vertex="1">
          <mxGeometry x="1" relative="1" as="geometry" />
        </mxCell>
        <mxCell id="A7H-vvB8vNqfG-ey8gLz-74" value="&lt;font style=&quot;font-size: 18px;&quot;&gt;Provides&lt;/font&gt;" style="shape=rhombus;perimeter=rhombusPerimeter;whiteSpace=wrap;html=1;align=center;fillColor=#f5f5f5;gradientColor=#b3b3b3;strokeColor=#666666;" parent="1" vertex="1">
          <mxGeometry x="-354" y="1246" width="120" height="60" as="geometry" />
        </mxCell>
        <mxCell id="A7H-vvB8vNqfG-ey8gLz-75" value="" style="endArrow=none;html=1;rounded=0;entryX=0;entryY=0.5;entryDx=0;entryDy=0;" parent="1" source="A7H-vvB8vNqfG-ey8gLz-78" target="A7H-vvB8vNqfG-ey8gLz-8" edge="1">
          <mxGeometry relative="1" as="geometry">
            <mxPoint x="-176" y="1071" as="sourcePoint" />
            <mxPoint x="34" y="1100" as="targetPoint" />
          </mxGeometry>
        </mxCell>
        <mxCell id="A7H-vvB8vNqfG-ey8gLz-77" value="N" style="resizable=0;html=1;whiteSpace=wrap;align=right;verticalAlign=bottom;" parent="A7H-vvB8vNqfG-ey8gLz-75" connectable="0" vertex="1">
          <mxGeometry x="1" relative="1" as="geometry" />
        </mxCell>
        <mxCell id="A7H-vvB8vNqfG-ey8gLz-78" value="&lt;font style=&quot;font-size: 18px;&quot;&gt;Books&lt;/font&gt;" style="shape=rhombus;perimeter=rhombusPerimeter;whiteSpace=wrap;html=1;align=center;fillColor=#f5f5f5;gradientColor=#b3b3b3;strokeColor=#666666;" parent="1" vertex="1">
          <mxGeometry x="-230" y="1040" width="120" height="60" as="geometry" />
        </mxCell>
        <mxCell id="A7H-vvB8vNqfG-ey8gLz-83" value="" style="endArrow=none;html=1;rounded=0;entryX=0;entryY=0;entryDx=0;entryDy=0;exitX=1;exitY=1;exitDx=0;exitDy=0;" parent="1" source="A7H-vvB8vNqfG-ey8gLz-87" target="A7H-vvB8vNqfG-ey8gLz-6" edge="1">
          <mxGeometry relative="1" as="geometry">
            <mxPoint x="-81" y="1267" as="sourcePoint" />
            <mxPoint x="-141" y="1287" as="targetPoint" />
          </mxGeometry>
        </mxCell>
        <mxCell id="A7H-vvB8vNqfG-ey8gLz-84" value="N" style="resizable=0;html=1;whiteSpace=wrap;align=right;verticalAlign=bottom;" parent="A7H-vvB8vNqfG-ey8gLz-83" connectable="0" vertex="1">
          <mxGeometry x="1" relative="1" as="geometry" />
        </mxCell>
        <mxCell id="A7H-vvB8vNqfG-ey8gLz-87" value="&lt;font style=&quot;font-size: 18px;&quot;&gt;Makes&lt;/font&gt;" style="shape=rhombus;perimeter=rhombusPerimeter;whiteSpace=wrap;html=1;align=center;fillColor=#f5f5f5;gradientColor=#b3b3b3;strokeColor=#666666;" parent="1" vertex="1">
          <mxGeometry x="40" y="1280" width="120" height="60" as="geometry" />
        </mxCell>
        <mxCell id="A7H-vvB8vNqfG-ey8gLz-90" value="&lt;font style=&quot;font-size: 18px;&quot;&gt;For&lt;/font&gt;" style="shape=rhombus;perimeter=rhombusPerimeter;whiteSpace=wrap;html=1;align=center;fillColor=#f5f5f5;gradientColor=#b3b3b3;strokeColor=#666666;" parent="1" vertex="1">
          <mxGeometry x="74" y="1517" width="120" height="60" as="geometry" />
        </mxCell>
        <mxCell id="A7H-vvB8vNqfG-ey8gLz-102" value="" style="endArrow=none;html=1;rounded=0;exitX=0.5;exitY=0;exitDx=0;exitDy=0;" parent="1" source="A7H-vvB8vNqfG-ey8gLz-107" edge="1">
          <mxGeometry relative="1" as="geometry">
            <mxPoint x="630" y="1110" as="sourcePoint" />
            <mxPoint x="678" y="640" as="targetPoint" />
          </mxGeometry>
        </mxCell>
        <mxCell id="A7H-vvB8vNqfG-ey8gLz-103" value="1" style="resizable=0;html=1;whiteSpace=wrap;align=right;verticalAlign=bottom;" parent="A7H-vvB8vNqfG-ey8gLz-102" connectable="0" vertex="1">
          <mxGeometry x="1" relative="1" as="geometry" />
        </mxCell>
        <mxCell id="A7H-vvB8vNqfG-ey8gLz-107" value="&lt;font style=&quot;font-size: 18px;&quot;&gt;For&lt;/font&gt;" style="shape=rhombus;perimeter=rhombusPerimeter;whiteSpace=wrap;html=1;align=center;fillColor=#f5f5f5;gradientColor=#b3b3b3;strokeColor=#666666;" parent="1" vertex="1">
          <mxGeometry x="618" y="1160" width="120" height="60" as="geometry" />
        </mxCell>
        <mxCell id="A7H-vvB8vNqfG-ey8gLz-112" value="" style="endArrow=none;html=1;rounded=0;entryX=0.5;entryY=1;entryDx=0;entryDy=0;exitX=0.164;exitY=0.329;exitDx=0;exitDy=0;exitPerimeter=0;" parent="1" source="A7H-vvB8vNqfG-ey8gLz-114" target="A7H-vvB8vNqfG-ey8gLz-8" edge="1">
          <mxGeometry relative="1" as="geometry">
            <mxPoint x="430" y="1320" as="sourcePoint" />
            <mxPoint x="330" y="1170" as="targetPoint" />
          </mxGeometry>
        </mxCell>
        <mxCell id="A7H-vvB8vNqfG-ey8gLz-113" value="1" style="resizable=0;html=1;whiteSpace=wrap;align=right;verticalAlign=bottom;" parent="A7H-vvB8vNqfG-ey8gLz-112" connectable="0" vertex="1">
          <mxGeometry x="1" relative="1" as="geometry" />
        </mxCell>
        <mxCell id="A7H-vvB8vNqfG-ey8gLz-114" value="&lt;font style=&quot;font-size: 18px;&quot;&gt;For&lt;/font&gt;" style="shape=rhombus;perimeter=rhombusPerimeter;whiteSpace=wrap;html=1;align=center;fillColor=#f5f5f5;gradientColor=#b3b3b3;strokeColor=#666666;" parent="1" vertex="1">
          <mxGeometry x="410" y="1306" width="120" height="60" as="geometry" />
        </mxCell>
        <mxCell id="A7H-vvB8vNqfG-ey8gLz-116" value="" style="endArrow=none;html=1;rounded=0;entryX=1;entryY=0.5;entryDx=0;entryDy=0;exitX=0;exitY=0.5;exitDx=0;exitDy=0;" parent="1" source="A7H-vvB8vNqfG-ey8gLz-90" target="A7H-vvB8vNqfG-ey8gLz-7" edge="1">
          <mxGeometry relative="1" as="geometry">
            <mxPoint x="-116" y="1246.57" as="sourcePoint" />
            <mxPoint x="44" y="1246.57" as="targetPoint" />
          </mxGeometry>
        </mxCell>
        <mxCell id="A7H-vvB8vNqfG-ey8gLz-117" value="1" style="resizable=0;html=1;whiteSpace=wrap;align=right;verticalAlign=bottom;" parent="A7H-vvB8vNqfG-ey8gLz-116" connectable="0" vertex="1">
          <mxGeometry x="1" relative="1" as="geometry" />
        </mxCell>
        <mxCell id="A7H-vvB8vNqfG-ey8gLz-120" value="" style="endArrow=none;html=1;rounded=0;dashed=1;dashPattern=1 2;entryX=0.5;entryY=0;entryDx=0;entryDy=0;exitX=0.5;exitY=1;exitDx=0;exitDy=0;" parent="1" source="A7H-vvB8vNqfG-ey8gLz-21" target="A7H-vvB8vNqfG-ey8gLz-1" edge="1">
          <mxGeometry relative="1" as="geometry">
            <mxPoint x="-440" y="690" as="sourcePoint" />
            <mxPoint x="-306" y="1070" as="targetPoint" />
          </mxGeometry>
        </mxCell>
        <mxCell id="A7H-vvB8vNqfG-ey8gLz-121" value="N" style="resizable=0;html=1;whiteSpace=wrap;align=right;verticalAlign=bottom;" parent="A7H-vvB8vNqfG-ey8gLz-120" connectable="0" vertex="1">
          <mxGeometry x="1" relative="1" as="geometry" />
        </mxCell>
        <mxCell id="A7H-vvB8vNqfG-ey8gLz-122" value="" style="endArrow=none;html=1;rounded=0;exitX=0.5;exitY=0;exitDx=0;exitDy=0;entryX=0.37;entryY=1.05;entryDx=0;entryDy=0;entryPerimeter=0;" parent="1" source="A7H-vvB8vNqfG-ey8gLz-21" target="A7H-vvB8vNqfG-ey8gLz-4" edge="1">
          <mxGeometry relative="1" as="geometry">
            <mxPoint x="-309" y="810" as="sourcePoint" />
            <mxPoint x="-320" y="300" as="targetPoint" />
          </mxGeometry>
        </mxCell>
        <mxCell id="A7H-vvB8vNqfG-ey8gLz-123" value="N" style="resizable=0;html=1;whiteSpace=wrap;align=right;verticalAlign=bottom;" parent="A7H-vvB8vNqfG-ey8gLz-122" connectable="0" vertex="1">
          <mxGeometry x="1" relative="1" as="geometry" />
        </mxCell>
        <mxCell id="A7H-vvB8vNqfG-ey8gLz-124" value="" style="endArrow=none;html=1;rounded=0;dashed=1;dashPattern=1 2;entryX=0.25;entryY=0;entryDx=0;entryDy=0;" parent="1" source="A7H-vvB8vNqfG-ey8gLz-39" target="A7H-vvB8vNqfG-ey8gLz-2" edge="1">
          <mxGeometry relative="1" as="geometry">
            <mxPoint x="-35" y="740" as="sourcePoint" />
            <mxPoint x="125" y="740" as="targetPoint" />
          </mxGeometry>
        </mxCell>
        <mxCell id="A7H-vvB8vNqfG-ey8gLz-125" value="N" style="resizable=0;html=1;whiteSpace=wrap;align=right;verticalAlign=bottom;" parent="A7H-vvB8vNqfG-ey8gLz-124" connectable="0" vertex="1">
          <mxGeometry x="1" relative="1" as="geometry" />
        </mxCell>
        <mxCell id="A7H-vvB8vNqfG-ey8gLz-126" value="" style="endArrow=none;html=1;rounded=0;entryX=1;entryY=1;entryDx=0;entryDy=0;" parent="1" source="A7H-vvB8vNqfG-ey8gLz-39" target="A7H-vvB8vNqfG-ey8gLz-4" edge="1">
          <mxGeometry relative="1" as="geometry">
            <mxPoint x="47.46511627906966" y="502.26744186046517" as="sourcePoint" />
            <mxPoint x="-235" y="300" as="targetPoint" />
          </mxGeometry>
        </mxCell>
        <mxCell id="A7H-vvB8vNqfG-ey8gLz-127" value="N" style="resizable=0;html=1;whiteSpace=wrap;align=right;verticalAlign=bottom;" parent="A7H-vvB8vNqfG-ey8gLz-126" connectable="0" vertex="1">
          <mxGeometry x="1" relative="1" as="geometry" />
        </mxCell>
        <mxCell id="A7H-vvB8vNqfG-ey8gLz-128" value="" style="endArrow=none;html=1;rounded=0;dashed=1;dashPattern=1 2;entryX=0.75;entryY=0;entryDx=0;entryDy=0;exitX=0;exitY=1;exitDx=0;exitDy=0;" parent="1" source="A7H-vvB8vNqfG-ey8gLz-59" target="A7H-vvB8vNqfG-ey8gLz-1" edge="1">
          <mxGeometry relative="1" as="geometry">
            <mxPoint x="-216" y="974.9" as="sourcePoint" />
            <mxPoint x="-56" y="974.9" as="targetPoint" />
          </mxGeometry>
        </mxCell>
        <mxCell id="A7H-vvB8vNqfG-ey8gLz-129" value="1" style="resizable=0;html=1;whiteSpace=wrap;align=right;verticalAlign=bottom;" parent="A7H-vvB8vNqfG-ey8gLz-128" connectable="0" vertex="1">
          <mxGeometry x="1" relative="1" as="geometry" />
        </mxCell>
        <mxCell id="A7H-vvB8vNqfG-ey8gLz-130" value="" style="endArrow=none;html=1;rounded=0;dashed=1;dashPattern=1 2;entryX=0;entryY=0;entryDx=0;entryDy=0;exitX=0.5;exitY=1;exitDx=0;exitDy=0;" parent="1" source="A7H-vvB8vNqfG-ey8gLz-69" target="A7H-vvB8vNqfG-ey8gLz-3" edge="1">
          <mxGeometry relative="1" as="geometry">
            <mxPoint x="-176" y="789.29" as="sourcePoint" />
            <mxPoint x="-16" y="789.29" as="targetPoint" />
          </mxGeometry>
        </mxCell>
        <mxCell id="A7H-vvB8vNqfG-ey8gLz-131" value="N" style="resizable=0;html=1;whiteSpace=wrap;align=right;verticalAlign=bottom;" parent="A7H-vvB8vNqfG-ey8gLz-130" connectable="0" vertex="1">
          <mxGeometry x="1" relative="1" as="geometry" />
        </mxCell>
        <mxCell id="A7H-vvB8vNqfG-ey8gLz-132" value="" style="endArrow=none;html=1;rounded=0;dashed=1;dashPattern=1 2;entryX=0.59;entryY=0.963;entryDx=0;entryDy=0;entryPerimeter=0;" parent="1" source="A7H-vvB8vNqfG-ey8gLz-74" target="A7H-vvB8vNqfG-ey8gLz-1" edge="1">
          <mxGeometry relative="1" as="geometry">
            <mxPoint x="-276" y="1130" as="sourcePoint" />
            <mxPoint x="-116" y="1130" as="targetPoint" />
          </mxGeometry>
        </mxCell>
        <mxCell id="A7H-vvB8vNqfG-ey8gLz-133" value="1" style="resizable=0;html=1;whiteSpace=wrap;align=right;verticalAlign=bottom;" parent="A7H-vvB8vNqfG-ey8gLz-132" connectable="0" vertex="1">
          <mxGeometry x="1" relative="1" as="geometry">
            <mxPoint x="6" y="2" as="offset" />
          </mxGeometry>
        </mxCell>
        <mxCell id="A7H-vvB8vNqfG-ey8gLz-134" value="" style="endArrow=none;html=1;rounded=0;dashed=1;dashPattern=1 2;entryX=1;entryY=0.5;entryDx=0;entryDy=0;exitX=0;exitY=0.5;exitDx=0;exitDy=0;" parent="1" source="A7H-vvB8vNqfG-ey8gLz-78" target="A7H-vvB8vNqfG-ey8gLz-1" edge="1">
          <mxGeometry relative="1" as="geometry">
            <mxPoint x="-26" y="970" as="sourcePoint" />
            <mxPoint x="134" y="970" as="targetPoint" />
          </mxGeometry>
        </mxCell>
        <mxCell id="A7H-vvB8vNqfG-ey8gLz-135" value="N" style="resizable=0;html=1;whiteSpace=wrap;align=right;verticalAlign=bottom;" parent="A7H-vvB8vNqfG-ey8gLz-134" connectable="0" vertex="1">
          <mxGeometry x="1" relative="1" as="geometry" />
        </mxCell>
        <mxCell id="A7H-vvB8vNqfG-ey8gLz-136" value="" style="endArrow=none;html=1;rounded=0;dashed=1;dashPattern=1 2;entryX=1;entryY=1;entryDx=0;entryDy=0;" parent="1" source="A7H-vvB8vNqfG-ey8gLz-87" target="A7H-vvB8vNqfG-ey8gLz-1" edge="1">
          <mxGeometry relative="1" as="geometry">
            <mxPoint x="-76" y="1120" as="sourcePoint" />
            <mxPoint x="84" y="1120" as="targetPoint" />
          </mxGeometry>
        </mxCell>
        <mxCell id="A7H-vvB8vNqfG-ey8gLz-137" value="1" style="resizable=0;html=1;whiteSpace=wrap;align=right;verticalAlign=bottom;" parent="A7H-vvB8vNqfG-ey8gLz-136" connectable="0" vertex="1">
          <mxGeometry x="1" relative="1" as="geometry" />
        </mxCell>
        <mxCell id="A7H-vvB8vNqfG-ey8gLz-138" value="" style="endArrow=none;html=1;rounded=0;dashed=1;dashPattern=1 2;exitX=0.5;exitY=0.933;exitDx=0;exitDy=0;exitPerimeter=0;entryX=0.627;entryY=0.041;entryDx=0;entryDy=0;entryPerimeter=0;" parent="1" source="A7H-vvB8vNqfG-ey8gLz-107" target="A7H-vvB8vNqfG-ey8gLz-6" edge="1">
          <mxGeometry relative="1" as="geometry">
            <mxPoint x="294" y="1100" as="sourcePoint" />
            <mxPoint x="670" y="1510" as="targetPoint" />
          </mxGeometry>
        </mxCell>
        <mxCell id="A7H-vvB8vNqfG-ey8gLz-139" value="N" style="resizable=0;html=1;whiteSpace=wrap;align=right;verticalAlign=bottom;" parent="A7H-vvB8vNqfG-ey8gLz-138" connectable="0" vertex="1">
          <mxGeometry x="1" relative="1" as="geometry" />
        </mxCell>
        <mxCell id="A7H-vvB8vNqfG-ey8gLz-140" value="" style="endArrow=none;html=1;rounded=0;dashed=1;dashPattern=1 2;entryX=0.25;entryY=0;entryDx=0;entryDy=0;exitX=0.593;exitY=0.976;exitDx=0;exitDy=0;exitPerimeter=0;" parent="1" source="A7H-vvB8vNqfG-ey8gLz-114" target="A7H-vvB8vNqfG-ey8gLz-6" edge="1">
          <mxGeometry relative="1" as="geometry">
            <mxPoint x="284" y="1190" as="sourcePoint" />
            <mxPoint x="434" y="1200" as="targetPoint" />
          </mxGeometry>
        </mxCell>
        <mxCell id="A7H-vvB8vNqfG-ey8gLz-141" value="N" style="resizable=0;html=1;whiteSpace=wrap;align=right;verticalAlign=bottom;" parent="A7H-vvB8vNqfG-ey8gLz-140" connectable="0" vertex="1">
          <mxGeometry x="1" relative="1" as="geometry" />
        </mxCell>
        <mxCell id="A7H-vvB8vNqfG-ey8gLz-142" value="" style="endArrow=none;html=1;rounded=0;dashed=1;dashPattern=1 2;entryX=0;entryY=0.5;entryDx=0;entryDy=0;exitX=1;exitY=0.5;exitDx=0;exitDy=0;" parent="1" source="A7H-vvB8vNqfG-ey8gLz-90" target="A7H-vvB8vNqfG-ey8gLz-6" edge="1">
          <mxGeometry relative="1" as="geometry">
            <mxPoint x="154" y="1268" as="sourcePoint" />
            <mxPoint x="295" y="1267.29" as="targetPoint" />
          </mxGeometry>
        </mxCell>
        <mxCell id="A7H-vvB8vNqfG-ey8gLz-143" value="1" style="resizable=0;html=1;whiteSpace=wrap;align=right;verticalAlign=bottom;" parent="A7H-vvB8vNqfG-ey8gLz-142" connectable="0" vertex="1">
          <mxGeometry x="1" relative="1" as="geometry" />
        </mxCell>
        <mxCell id="A7H-vvB8vNqfG-ey8gLz-147" value="&lt;font style=&quot;font-size: 18px;&quot;&gt;User ID&lt;/font&gt;" style="ellipse;whiteSpace=wrap;html=1;align=center;fontStyle=4;fillColor=#fff2cc;gradientColor=#ffd966;strokeColor=#d6b656;" parent="1" vertex="1">
          <mxGeometry x="-700" y="874.9" width="100" height="40" as="geometry" />
        </mxCell>
        <mxCell id="A7H-vvB8vNqfG-ey8gLz-148" value="&lt;font style=&quot;font-size: 18px;&quot;&gt;Name&lt;/font&gt;" style="ellipse;whiteSpace=wrap;html=1;align=center;fillColor=#fff2cc;gradientColor=#ffd966;strokeColor=#d6b656;" parent="1" vertex="1">
          <mxGeometry x="-860" y="1020" width="100" height="40" as="geometry" />
        </mxCell>
        <mxCell id="A7H-vvB8vNqfG-ey8gLz-149" value="&lt;font style=&quot;font-size: 18px;&quot;&gt;Email&lt;/font&gt;" style="ellipse;shape=doubleEllipse;margin=3;whiteSpace=wrap;html=1;align=center;fillColor=#fff2cc;gradientColor=#ffd966;strokeColor=#d6b656;" parent="1" vertex="1">
          <mxGeometry x="-810" y="940" width="100" height="40" as="geometry" />
        </mxCell>
        <mxCell id="A7H-vvB8vNqfG-ey8gLz-150" value="&lt;font style=&quot;font-size: 18px;&quot;&gt;Phone&lt;/font&gt;" style="ellipse;shape=doubleEllipse;margin=3;whiteSpace=wrap;html=1;align=center;fillColor=#fff2cc;gradientColor=#ffd966;strokeColor=#d6b656;" parent="1" vertex="1">
          <mxGeometry x="-860" y="1080" width="100" height="40" as="geometry" />
        </mxCell>
        <mxCell id="A7H-vvB8vNqfG-ey8gLz-152" value="&lt;font style=&quot;font-size: 18px;&quot;&gt;Role&lt;/font&gt;" style="ellipse;whiteSpace=wrap;html=1;align=center;fillColor=#fff2cc;gradientColor=#ffd966;strokeColor=#d6b656;" parent="1" vertex="1">
          <mxGeometry x="-860" y="1150" width="100" height="40" as="geometry" />
        </mxCell>
        <mxCell id="A7H-vvB8vNqfG-ey8gLz-153" value="&lt;font style=&quot;font-size: 18px;&quot;&gt;Address&lt;/font&gt;" style="ellipse;whiteSpace=wrap;html=1;align=center;fillColor=#fff2cc;gradientColor=#ffd966;strokeColor=#d6b656;" parent="1" vertex="1">
          <mxGeometry x="-750" y="1210" width="100" height="40" as="geometry" />
        </mxCell>
        <mxCell id="A7H-vvB8vNqfG-ey8gLz-154" value="&lt;font style=&quot;font-size: 18px;&quot;&gt;Registration Date&lt;/font&gt;" style="ellipse;whiteSpace=wrap;html=1;align=center;fillColor=#fff2cc;gradientColor=#ffd966;strokeColor=#d6b656;" parent="1" vertex="1">
          <mxGeometry x="-570" y="1266" width="180" height="40" as="geometry" />
        </mxCell>
        <mxCell id="A7H-vvB8vNqfG-ey8gLz-155" value="&lt;font style=&quot;font-size: 18px;&quot;&gt;City&lt;/font&gt;" style="ellipse;whiteSpace=wrap;html=1;align=center;dashed=1;fillColor=#fff2cc;gradientColor=#ffd966;strokeColor=#d6b656;" parent="1" vertex="1">
          <mxGeometry x="-870" y="1280" width="100" height="40" as="geometry" />
        </mxCell>
        <mxCell id="A7H-vvB8vNqfG-ey8gLz-156" value="&lt;font style=&quot;font-size: 18px;&quot;&gt;Zip Code&lt;/font&gt;" style="ellipse;whiteSpace=wrap;html=1;align=center;dashed=1;fillColor=#fff2cc;gradientColor=#ffd966;strokeColor=#d6b656;" parent="1" vertex="1">
          <mxGeometry x="-760" y="1326" width="100" height="40" as="geometry" />
        </mxCell>
        <mxCell id="A7H-vvB8vNqfG-ey8gLz-157" value="" style="endArrow=none;html=1;rounded=0;exitX=0.78;exitY=0.915;exitDx=0;exitDy=0;exitPerimeter=0;entryX=0.25;entryY=0;entryDx=0;entryDy=0;" parent="1" source="A7H-vvB8vNqfG-ey8gLz-147" target="A7H-vvB8vNqfG-ey8gLz-1" edge="1">
          <mxGeometry relative="1" as="geometry">
            <mxPoint x="-580" y="989.38" as="sourcePoint" />
            <mxPoint x="-420" y="989.38" as="targetPoint" />
          </mxGeometry>
        </mxCell>
        <mxCell id="A7H-vvB8vNqfG-ey8gLz-158" value="" style="endArrow=none;html=1;rounded=0;exitX=1;exitY=1;exitDx=0;exitDy=0;entryX=0;entryY=0;entryDx=0;entryDy=0;" parent="1" source="A7H-vvB8vNqfG-ey8gLz-149" target="A7H-vvB8vNqfG-ey8gLz-1" edge="1">
          <mxGeometry relative="1" as="geometry">
            <mxPoint x="-630" y="1040" as="sourcePoint" />
            <mxPoint x="-470" y="1040" as="targetPoint" />
          </mxGeometry>
        </mxCell>
        <mxCell id="A7H-vvB8vNqfG-ey8gLz-159" value="" style="endArrow=none;html=1;rounded=0;entryX=0;entryY=0.25;entryDx=0;entryDy=0;exitX=1;exitY=0.5;exitDx=0;exitDy=0;" parent="1" source="A7H-vvB8vNqfG-ey8gLz-148" target="A7H-vvB8vNqfG-ey8gLz-1" edge="1">
          <mxGeometry relative="1" as="geometry">
            <mxPoint x="-630" y="1060" as="sourcePoint" />
            <mxPoint x="-500" y="1059.38" as="targetPoint" />
          </mxGeometry>
        </mxCell>
        <mxCell id="A7H-vvB8vNqfG-ey8gLz-160" value="" style="endArrow=none;html=1;rounded=0;entryX=0;entryY=0.75;entryDx=0;entryDy=0;exitX=1;exitY=0;exitDx=0;exitDy=0;" parent="1" source="A7H-vvB8vNqfG-ey8gLz-150" target="A7H-vvB8vNqfG-ey8gLz-1" edge="1">
          <mxGeometry relative="1" as="geometry">
            <mxPoint x="-650" y="1128.75" as="sourcePoint" />
            <mxPoint x="-490" y="1128.75" as="targetPoint" />
          </mxGeometry>
        </mxCell>
        <mxCell id="A7H-vvB8vNqfG-ey8gLz-161" value="" style="endArrow=none;html=1;rounded=0;entryX=0.1;entryY=1;entryDx=0;entryDy=0;exitX=1;exitY=0;exitDx=0;exitDy=0;entryPerimeter=0;" parent="1" source="A7H-vvB8vNqfG-ey8gLz-152" target="A7H-vvB8vNqfG-ey8gLz-1" edge="1">
          <mxGeometry relative="1" as="geometry">
            <mxPoint x="-500" y="1180" as="sourcePoint" />
            <mxPoint x="-340" y="1180" as="targetPoint" />
          </mxGeometry>
        </mxCell>
        <mxCell id="A7H-vvB8vNqfG-ey8gLz-162" value="" style="endArrow=none;html=1;rounded=0;exitX=0.25;exitY=1;exitDx=0;exitDy=0;entryX=0.5;entryY=0;entryDx=0;entryDy=0;" parent="1" source="A7H-vvB8vNqfG-ey8gLz-1" target="A7H-vvB8vNqfG-ey8gLz-153" edge="1">
          <mxGeometry relative="1" as="geometry">
            <mxPoint x="-500" y="1180" as="sourcePoint" />
            <mxPoint x="-340" y="1180" as="targetPoint" />
          </mxGeometry>
        </mxCell>
        <mxCell id="A7H-vvB8vNqfG-ey8gLz-163" value="" style="endArrow=none;html=1;rounded=0;entryX=0.3;entryY=0;entryDx=0;entryDy=0;entryPerimeter=0;" parent="1" target="A7H-vvB8vNqfG-ey8gLz-154" edge="1">
          <mxGeometry relative="1" as="geometry">
            <mxPoint x="-510" y="1090" as="sourcePoint" />
            <mxPoint x="-340" y="1180" as="targetPoint" />
          </mxGeometry>
        </mxCell>
        <mxCell id="A7H-vvB8vNqfG-ey8gLz-164" value="" style="endArrow=none;html=1;rounded=0;exitX=1;exitY=0;exitDx=0;exitDy=0;entryX=0;entryY=1;entryDx=0;entryDy=0;" parent="1" source="A7H-vvB8vNqfG-ey8gLz-155" target="A7H-vvB8vNqfG-ey8gLz-153" edge="1">
          <mxGeometry relative="1" as="geometry">
            <mxPoint x="-670" y="1270" as="sourcePoint" />
            <mxPoint x="-630" y="1230" as="targetPoint" />
          </mxGeometry>
        </mxCell>
        <mxCell id="A7H-vvB8vNqfG-ey8gLz-165" value="" style="endArrow=none;html=1;rounded=0;exitX=0.5;exitY=1;exitDx=0;exitDy=0;entryX=0.5;entryY=0;entryDx=0;entryDy=0;" parent="1" source="A7H-vvB8vNqfG-ey8gLz-153" target="A7H-vvB8vNqfG-ey8gLz-156" edge="1">
          <mxGeometry relative="1" as="geometry">
            <mxPoint x="-600" y="1290" as="sourcePoint" />
            <mxPoint x="-440" y="1290" as="targetPoint" />
          </mxGeometry>
        </mxCell>
        <mxCell id="A7H-vvB8vNqfG-ey8gLz-166" value="&lt;font style=&quot;font-size: 18px;&quot;&gt;Team ID&lt;/font&gt;" style="ellipse;whiteSpace=wrap;html=1;align=center;fontStyle=4;fillColor=#e6d0de;gradientColor=#d5739d;strokeColor=#996185;" parent="1" vertex="1">
          <mxGeometry x="-680" y="20" width="100" height="40" as="geometry" />
        </mxCell>
        <mxCell id="A7H-vvB8vNqfG-ey8gLz-167" value="&lt;font style=&quot;font-size: 18px;&quot;&gt;Team Size&lt;/font&gt;" style="ellipse;whiteSpace=wrap;html=1;align=center;fillColor=#e6d0de;gradientColor=#d5739d;strokeColor=#996185;" parent="1" vertex="1">
          <mxGeometry x="-420" y="10" width="100" height="40" as="geometry" />
        </mxCell>
        <mxCell id="A7H-vvB8vNqfG-ey8gLz-168" value="&lt;font style=&quot;font-size: 18px;&quot;&gt;Team Name&lt;/font&gt;" style="ellipse;whiteSpace=wrap;html=1;align=center;fillColor=#e6d0de;gradientColor=#d5739d;strokeColor=#996185;" parent="1" vertex="1">
          <mxGeometry x="-276" y="20" width="100" height="40" as="geometry" />
        </mxCell>
        <mxCell id="A7H-vvB8vNqfG-ey8gLz-169" value="&lt;font style=&quot;font-size: 18px;&quot;&gt;Leader ID&lt;/font&gt;" style="ellipse;whiteSpace=wrap;html=1;align=center;fontStyle=4;fillColor=#e6d0de;gradientColor=#d5739d;strokeColor=#996185;" parent="1" vertex="1">
          <mxGeometry x="-690" y="170" width="100" height="40" as="geometry" />
        </mxCell>
        <mxCell id="A7H-vvB8vNqfG-ey8gLz-170" value="" style="endArrow=none;html=1;rounded=0;entryX=0;entryY=1;entryDx=0;entryDy=0;exitX=1;exitY=0;exitDx=0;exitDy=0;" parent="1" source="A7H-vvB8vNqfG-ey8gLz-169" target="A7H-vvB8vNqfG-ey8gLz-4" edge="1">
          <mxGeometry relative="1" as="geometry">
            <mxPoint x="-645.5206126190174" y="279.9975273718029" as="sourcePoint" />
            <mxPoint x="-557" y="304.83000000000004" as="targetPoint" />
          </mxGeometry>
        </mxCell>
        <mxCell id="A7H-vvB8vNqfG-ey8gLz-171" value="" style="endArrow=none;html=1;rounded=0;entryX=0;entryY=0.25;entryDx=0;entryDy=0;exitX=1;exitY=1;exitDx=0;exitDy=0;" parent="1" source="A7H-vvB8vNqfG-ey8gLz-166" target="A7H-vvB8vNqfG-ey8gLz-4" edge="1">
          <mxGeometry relative="1" as="geometry">
            <mxPoint x="-660" y="350" as="sourcePoint" />
            <mxPoint x="-160" y="250" as="targetPoint" />
          </mxGeometry>
        </mxCell>
        <mxCell id="A7H-vvB8vNqfG-ey8gLz-172" value="" style="endArrow=none;html=1;rounded=0;exitX=0.34;exitY=1.033;exitDx=0;exitDy=0;entryX=0.873;entryY=0.117;entryDx=0;entryDy=0;entryPerimeter=0;exitPerimeter=0;" parent="1" source="A7H-vvB8vNqfG-ey8gLz-167" target="A7H-vvB8vNqfG-ey8gLz-4" edge="1">
          <mxGeometry relative="1" as="geometry">
            <mxPoint x="-276" y="330" as="sourcePoint" />
            <mxPoint x="-530" y="260" as="targetPoint" />
          </mxGeometry>
        </mxCell>
        <mxCell id="A7H-vvB8vNqfG-ey8gLz-173" value="" style="endArrow=none;html=1;rounded=0;entryX=0;entryY=1;entryDx=0;entryDy=0;exitX=1;exitY=0.25;exitDx=0;exitDy=0;" parent="1" source="A7H-vvB8vNqfG-ey8gLz-4" target="A7H-vvB8vNqfG-ey8gLz-168" edge="1">
          <mxGeometry relative="1" as="geometry">
            <mxPoint x="-200" y="290" as="sourcePoint" />
            <mxPoint x="-40" y="290" as="targetPoint" />
          </mxGeometry>
        </mxCell>
        <mxCell id="A7H-vvB8vNqfG-ey8gLz-174" value="&lt;font style=&quot;font-size: 18px;&quot;&gt;Venue ID&lt;/font&gt;" style="ellipse;whiteSpace=wrap;html=1;align=center;fontStyle=4;fillColor=#ffcd28;gradientColor=#ffa500;strokeColor=#d79b00;" parent="1" vertex="1">
          <mxGeometry x="840" y="280" width="100" height="40" as="geometry" />
        </mxCell>
        <mxCell id="A7H-vvB8vNqfG-ey8gLz-175" value="&lt;font style=&quot;font-size: 18px;&quot;&gt;Name&lt;/font&gt;" style="ellipse;whiteSpace=wrap;html=1;align=center;fillColor=#ffcd28;gradientColor=#ffa500;strokeColor=#d79b00;" parent="1" vertex="1">
          <mxGeometry x="960" y="160" width="100" height="40" as="geometry" />
        </mxCell>
        <mxCell id="A7H-vvB8vNqfG-ey8gLz-176" value="&lt;font style=&quot;font-size: 18px;&quot;&gt;Type&lt;/font&gt;" style="ellipse;whiteSpace=wrap;html=1;align=center;fillColor=#ffcd28;gradientColor=#ffa500;strokeColor=#d79b00;" parent="1" vertex="1">
          <mxGeometry x="890" y="20" width="100" height="40" as="geometry" />
        </mxCell>
        <mxCell id="A7H-vvB8vNqfG-ey8gLz-177" value="&lt;font style=&quot;font-size: 18px;&quot;&gt;Capacity&lt;/font&gt;" style="ellipse;whiteSpace=wrap;html=1;align=center;fillColor=#ffcd28;gradientColor=#ffa500;strokeColor=#d79b00;" parent="1" vertex="1">
          <mxGeometry x="960" y="80" width="100" height="40" as="geometry" />
        </mxCell>
        <mxCell id="A7H-vvB8vNqfG-ey8gLz-178" value="&lt;font style=&quot;font-size: 18px;&quot;&gt;Status&lt;/font&gt;" style="ellipse;whiteSpace=wrap;html=1;align=center;fillColor=#ffcd28;gradientColor=#ffa500;strokeColor=#d79b00;" parent="1" vertex="1">
          <mxGeometry x="450" y="30" width="100" height="40" as="geometry" />
        </mxCell>
        <mxCell id="A7H-vvB8vNqfG-ey8gLz-179" value="" style="endArrow=none;html=1;rounded=0;exitX=1;exitY=1;exitDx=0;exitDy=0;entryX=0;entryY=0;entryDx=0;entryDy=0;" parent="1" source="A7H-vvB8vNqfG-ey8gLz-178" target="A7H-vvB8vNqfG-ey8gLz-5" edge="1">
          <mxGeometry relative="1" as="geometry">
            <mxPoint x="290" y="340" as="sourcePoint" />
            <mxPoint x="450" y="340" as="targetPoint" />
          </mxGeometry>
        </mxCell>
        <mxCell id="A7H-vvB8vNqfG-ey8gLz-180" value="" style="endArrow=none;html=1;rounded=0;entryX=0;entryY=0;entryDx=0;entryDy=0;" parent="1" source="A7H-vvB8vNqfG-ey8gLz-5" target="A7H-vvB8vNqfG-ey8gLz-174" edge="1">
          <mxGeometry relative="1" as="geometry">
            <mxPoint x="290" y="340" as="sourcePoint" />
            <mxPoint x="450" y="340" as="targetPoint" />
          </mxGeometry>
        </mxCell>
        <mxCell id="A7H-vvB8vNqfG-ey8gLz-181" value="" style="endArrow=none;html=1;rounded=0;exitX=1;exitY=1;exitDx=0;exitDy=0;entryX=0;entryY=1;entryDx=0;entryDy=0;" parent="1" source="A7H-vvB8vNqfG-ey8gLz-5" target="A7H-vvB8vNqfG-ey8gLz-175" edge="1">
          <mxGeometry relative="1" as="geometry">
            <mxPoint x="290" y="340" as="sourcePoint" />
            <mxPoint x="470" y="180" as="targetPoint" />
          </mxGeometry>
        </mxCell>
        <mxCell id="A7H-vvB8vNqfG-ey8gLz-182" value="" style="endArrow=none;html=1;rounded=0;entryX=0;entryY=0.5;entryDx=0;entryDy=0;exitX=1;exitY=0.5;exitDx=0;exitDy=0;" parent="1" source="A7H-vvB8vNqfG-ey8gLz-5" target="A7H-vvB8vNqfG-ey8gLz-176" edge="1">
          <mxGeometry relative="1" as="geometry">
            <mxPoint x="370" y="300" as="sourcePoint" />
            <mxPoint x="530" y="300" as="targetPoint" />
          </mxGeometry>
        </mxCell>
        <mxCell id="A7H-vvB8vNqfG-ey8gLz-183" value="" style="endArrow=none;html=1;rounded=0;entryX=0;entryY=0.5;entryDx=0;entryDy=0;exitX=1;exitY=0.75;exitDx=0;exitDy=0;" parent="1" source="A7H-vvB8vNqfG-ey8gLz-5" target="A7H-vvB8vNqfG-ey8gLz-177" edge="1">
          <mxGeometry relative="1" as="geometry">
            <mxPoint x="430" y="260" as="sourcePoint" />
            <mxPoint x="450" y="340" as="targetPoint" />
          </mxGeometry>
        </mxCell>
        <mxCell id="A7H-vvB8vNqfG-ey8gLz-210" value="&lt;font style=&quot;font-size: 18px;&quot;&gt;Judge ID&lt;/font&gt;" style="ellipse;whiteSpace=wrap;html=1;align=center;fontStyle=4;fillColor=#d5e8d4;gradientColor=#97d077;strokeColor=#82b366;" parent="1" vertex="1">
          <mxGeometry x="100" y="440" width="100" height="40" as="geometry" />
        </mxCell>
        <mxCell id="A7H-vvB8vNqfG-ey8gLz-211" value="&lt;font style=&quot;font-size: 18px;&quot;&gt;Event ID&lt;/font&gt;" style="ellipse;whiteSpace=wrap;html=1;align=center;fontStyle=4;fillColor=#d5e8d4;gradientColor=#97d077;strokeColor=#82b366;" parent="1" vertex="1">
          <mxGeometry y="409" width="100" height="40" as="geometry" />
        </mxCell>
        <mxCell id="A7H-vvB8vNqfG-ey8gLz-212" value="&lt;font style=&quot;font-size: 18px;&quot;&gt;Participant ID&lt;/font&gt;" style="ellipse;whiteSpace=wrap;html=1;align=center;fontStyle=4;fillColor=#d5e8d4;gradientColor=#97d077;strokeColor=#82b366;" parent="1" vertex="1">
          <mxGeometry x="-330" y="580" width="130" height="40" as="geometry" />
        </mxCell>
        <mxCell id="A7H-vvB8vNqfG-ey8gLz-213" value="&lt;font style=&quot;font-size: 18px;&quot;&gt;Team ID&lt;/font&gt;" style="ellipse;whiteSpace=wrap;html=1;align=center;fontStyle=4;fillColor=#d5e8d4;gradientColor=#97d077;strokeColor=#82b366;" parent="1" vertex="1">
          <mxGeometry x="-130" y="409" width="100" height="40" as="geometry" />
        </mxCell>
        <mxCell id="A7H-vvB8vNqfG-ey8gLz-214" value="&lt;font style=&quot;font-size: 18px;&quot;&gt;Round&lt;/font&gt;" style="ellipse;whiteSpace=wrap;html=1;align=center;fillColor=#d5e8d4;gradientColor=#97d077;strokeColor=#82b366;" parent="1" vertex="1">
          <mxGeometry x="100" y="710" width="100" height="40" as="geometry" />
        </mxCell>
        <mxCell id="A7H-vvB8vNqfG-ey8gLz-215" value="&lt;font style=&quot;font-size: 18px;&quot;&gt;Value&lt;/font&gt;" style="ellipse;whiteSpace=wrap;html=1;align=center;fillColor=#d5e8d4;gradientColor=#97d077;strokeColor=#82b366;" parent="1" vertex="1">
          <mxGeometry x="230" y="540" width="100" height="40" as="geometry" />
        </mxCell>
        <mxCell id="A7H-vvB8vNqfG-ey8gLz-216" value="" style="endArrow=none;html=1;rounded=0;entryX=0.652;entryY=1.011;entryDx=0;entryDy=0;entryPerimeter=0;exitX=0.5;exitY=0;exitDx=0;exitDy=0;" parent="1" source="A7H-vvB8vNqfG-ey8gLz-3" target="A7H-vvB8vNqfG-ey8gLz-211" edge="1">
          <mxGeometry relative="1" as="geometry">
            <mxPoint x="-120" y="703" as="sourcePoint" />
            <mxPoint x="40" y="703" as="targetPoint" />
          </mxGeometry>
        </mxCell>
        <mxCell id="A7H-vvB8vNqfG-ey8gLz-217" value="" style="endArrow=none;html=1;rounded=0;exitX=0.75;exitY=0;exitDx=0;exitDy=0;entryX=0.5;entryY=1;entryDx=0;entryDy=0;" parent="1" source="A7H-vvB8vNqfG-ey8gLz-3" target="A7H-vvB8vNqfG-ey8gLz-210" edge="1">
          <mxGeometry relative="1" as="geometry">
            <mxPoint x="-116" y="703" as="sourcePoint" />
            <mxPoint x="44" y="703" as="targetPoint" />
          </mxGeometry>
        </mxCell>
        <mxCell id="A7H-vvB8vNqfG-ey8gLz-219" value="" style="endArrow=none;html=1;rounded=0;exitX=0.708;exitY=1.05;exitDx=0;exitDy=0;entryX=0.5;entryY=0;entryDx=0;entryDy=0;exitPerimeter=0;" parent="1" source="A7H-vvB8vNqfG-ey8gLz-213" target="A7H-vvB8vNqfG-ey8gLz-3" edge="1">
          <mxGeometry relative="1" as="geometry">
            <mxPoint x="-190" y="725.9" as="sourcePoint" />
            <mxPoint x="-30" y="725.9" as="targetPoint" />
          </mxGeometry>
        </mxCell>
        <mxCell id="A7H-vvB8vNqfG-ey8gLz-220" value="" style="endArrow=none;html=1;rounded=0;entryX=0;entryY=0.5;entryDx=0;entryDy=0;exitX=1;exitY=0.5;exitDx=0;exitDy=0;" parent="1" source="A7H-vvB8vNqfG-ey8gLz-212" target="A7H-vvB8vNqfG-ey8gLz-3" edge="1">
          <mxGeometry relative="1" as="geometry">
            <mxPoint x="-220" y="750" as="sourcePoint" />
            <mxPoint x="-150" y="760" as="targetPoint" />
          </mxGeometry>
        </mxCell>
        <mxCell id="A7H-vvB8vNqfG-ey8gLz-221" value="" style="endArrow=none;html=1;rounded=0;exitX=0;exitY=0;exitDx=0;exitDy=0;entryX=1;entryY=1;entryDx=0;entryDy=0;" parent="1" source="A7H-vvB8vNqfG-ey8gLz-214" target="A7H-vvB8vNqfG-ey8gLz-3" edge="1">
          <mxGeometry relative="1" as="geometry">
            <mxPoint x="-176" y="779" as="sourcePoint" />
            <mxPoint x="-16" y="779" as="targetPoint" />
          </mxGeometry>
        </mxCell>
        <mxCell id="A7H-vvB8vNqfG-ey8gLz-222" value="" style="endArrow=none;html=1;rounded=0;entryX=0;entryY=1;entryDx=0;entryDy=0;exitX=1;exitY=0;exitDx=0;exitDy=0;" parent="1" source="A7H-vvB8vNqfG-ey8gLz-3" target="A7H-vvB8vNqfG-ey8gLz-215" edge="1">
          <mxGeometry relative="1" as="geometry">
            <mxPoint x="-40" y="750" as="sourcePoint" />
            <mxPoint x="84" y="789" as="targetPoint" />
          </mxGeometry>
        </mxCell>
        <mxCell id="A7H-vvB8vNqfG-ey8gLz-224" value="&lt;font style=&quot;font-size: 18px;&quot;&gt;Sponsorship ID&lt;/font&gt;" style="ellipse;whiteSpace=wrap;html=1;align=center;fontStyle=4;fillColor=#008a00;fontColor=#ffffff;strokeColor=#005700;" parent="1" vertex="1">
          <mxGeometry x="-490" y="1410" width="130" height="40" as="geometry" />
        </mxCell>
        <mxCell id="A7H-vvB8vNqfG-ey8gLz-225" value="&lt;font style=&quot;font-size: 18px;&quot;&gt;Sponsor ID&lt;/font&gt;" style="ellipse;whiteSpace=wrap;html=1;align=center;fontStyle=4;fillColor=#008a00;fontColor=#ffffff;strokeColor=#005700;" parent="1" vertex="1">
          <mxGeometry x="-600" y="1450" width="100" height="40" as="geometry" />
        </mxCell>
        <mxCell id="A7H-vvB8vNqfG-ey8gLz-226" value="&lt;font style=&quot;font-size: 18px;&quot;&gt;Package Name&lt;/font&gt;" style="ellipse;whiteSpace=wrap;html=1;align=center;fillColor=#008a00;fontColor=#ffffff;strokeColor=#005700;" parent="1" vertex="1">
          <mxGeometry x="-650" y="1530" width="140" height="40" as="geometry" />
        </mxCell>
        <mxCell id="A7H-vvB8vNqfG-ey8gLz-227" value="&lt;font style=&quot;font-size: 18px;&quot;&gt;Amount&lt;/font&gt;" style="ellipse;whiteSpace=wrap;html=1;align=center;fillColor=#008a00;fontColor=#ffffff;strokeColor=#005700;" parent="1" vertex="1">
          <mxGeometry x="-550" y="1580" width="100" height="40" as="geometry" />
        </mxCell>
        <mxCell id="A7H-vvB8vNqfG-ey8gLz-228" value="&lt;font style=&quot;font-size: 18px;&quot;&gt;Description&lt;/font&gt;" style="ellipse;whiteSpace=wrap;html=1;align=center;fillColor=#008a00;fontColor=#ffffff;strokeColor=#005700;" parent="1" vertex="1">
          <mxGeometry x="-510" y="1630" width="100" height="40" as="geometry" />
        </mxCell>
        <mxCell id="A7H-vvB8vNqfG-ey8gLz-229" value="&lt;font style=&quot;font-size: 18px;&quot;&gt;Start Date&lt;/font&gt;" style="ellipse;whiteSpace=wrap;html=1;align=center;fillColor=#008a00;fontColor=#ffffff;strokeColor=#005700;" parent="1" vertex="1">
          <mxGeometry x="-400" y="1640" width="100" height="40" as="geometry" />
        </mxCell>
        <mxCell id="A7H-vvB8vNqfG-ey8gLz-230" value="&lt;font style=&quot;font-size: 18px;&quot;&gt;End Date&lt;/font&gt;" style="ellipse;whiteSpace=wrap;html=1;align=center;fillColor=#008a00;fontColor=#ffffff;strokeColor=#005700;" parent="1" vertex="1">
          <mxGeometry x="-290" y="1640" width="100" height="40" as="geometry" />
        </mxCell>
        <mxCell id="A7H-vvB8vNqfG-ey8gLz-231" value="Status" style="ellipse;whiteSpace=wrap;html=1;align=center;fillColor=#008a00;fontColor=#ffffff;strokeColor=#005700;" parent="1" vertex="1">
          <mxGeometry x="-150" y="1630" width="100" height="40" as="geometry" />
        </mxCell>
        <mxCell id="A7H-vvB8vNqfG-ey8gLz-232" value="" style="endArrow=none;html=1;rounded=0;exitX=1;exitY=1;exitDx=0;exitDy=0;entryX=0;entryY=0;entryDx=0;entryDy=0;" parent="1" source="A7H-vvB8vNqfG-ey8gLz-7" target="A7H-vvB8vNqfG-ey8gLz-231" edge="1">
          <mxGeometry relative="1" as="geometry">
            <mxPoint x="-260" y="1510" as="sourcePoint" />
            <mxPoint x="-100" y="1510" as="targetPoint" />
          </mxGeometry>
        </mxCell>
        <mxCell id="A7H-vvB8vNqfG-ey8gLz-233" value="" style="endArrow=none;html=1;rounded=0;exitX=0.83;exitY=0.974;exitDx=0;exitDy=0;exitPerimeter=0;entryX=0.404;entryY=0.026;entryDx=0;entryDy=0;entryPerimeter=0;" parent="1" source="A7H-vvB8vNqfG-ey8gLz-7" target="A7H-vvB8vNqfG-ey8gLz-230" edge="1">
          <mxGeometry relative="1" as="geometry">
            <mxPoint x="-260" y="1510" as="sourcePoint" />
            <mxPoint x="-100" y="1510" as="targetPoint" />
          </mxGeometry>
        </mxCell>
        <mxCell id="A7H-vvB8vNqfG-ey8gLz-234" value="" style="endArrow=none;html=1;rounded=0;exitX=1;exitY=0;exitDx=0;exitDy=0;entryX=0.5;entryY=1;entryDx=0;entryDy=0;" parent="1" source="A7H-vvB8vNqfG-ey8gLz-229" target="A7H-vvB8vNqfG-ey8gLz-7" edge="1">
          <mxGeometry relative="1" as="geometry">
            <mxPoint x="-345" y="1539.57" as="sourcePoint" />
            <mxPoint x="-290" y="1500" as="targetPoint" />
          </mxGeometry>
        </mxCell>
        <mxCell id="A7H-vvB8vNqfG-ey8gLz-235" value="" style="endArrow=none;html=1;rounded=0;exitX=0.931;exitY=0.322;exitDx=0;exitDy=0;exitPerimeter=0;entryX=0.25;entryY=1;entryDx=0;entryDy=0;" parent="1" source="A7H-vvB8vNqfG-ey8gLz-228" target="A7H-vvB8vNqfG-ey8gLz-7" edge="1">
          <mxGeometry relative="1" as="geometry">
            <mxPoint x="-380" y="1539.57" as="sourcePoint" />
            <mxPoint x="-220" y="1539.57" as="targetPoint" />
          </mxGeometry>
        </mxCell>
        <mxCell id="A7H-vvB8vNqfG-ey8gLz-236" value="" style="endArrow=none;html=1;rounded=0;exitX=1;exitY=0.5;exitDx=0;exitDy=0;entryX=0;entryY=1;entryDx=0;entryDy=0;" parent="1" source="A7H-vvB8vNqfG-ey8gLz-227" target="A7H-vvB8vNqfG-ey8gLz-7" edge="1">
          <mxGeometry relative="1" as="geometry">
            <mxPoint x="-391" y="1520" as="sourcePoint" />
            <mxPoint x="-231" y="1520" as="targetPoint" />
          </mxGeometry>
        </mxCell>
        <mxCell id="A7H-vvB8vNqfG-ey8gLz-237" value="" style="endArrow=none;html=1;rounded=0;entryX=0;entryY=0.75;entryDx=0;entryDy=0;exitX=1;exitY=0.5;exitDx=0;exitDy=0;" parent="1" source="A7H-vvB8vNqfG-ey8gLz-226" target="A7H-vvB8vNqfG-ey8gLz-7" edge="1">
          <mxGeometry relative="1" as="geometry">
            <mxPoint x="-420" y="1489.57" as="sourcePoint" />
            <mxPoint x="-350" y="1490" as="targetPoint" />
          </mxGeometry>
        </mxCell>
        <mxCell id="A7H-vvB8vNqfG-ey8gLz-238" value="" style="endArrow=none;html=1;rounded=0;exitX=1;exitY=1;exitDx=0;exitDy=0;entryX=0;entryY=0.25;entryDx=0;entryDy=0;" parent="1" source="A7H-vvB8vNqfG-ey8gLz-225" target="A7H-vvB8vNqfG-ey8gLz-7" edge="1">
          <mxGeometry relative="1" as="geometry">
            <mxPoint x="-411" y="1460" as="sourcePoint" />
            <mxPoint x="-251" y="1460" as="targetPoint" />
          </mxGeometry>
        </mxCell>
        <mxCell id="A7H-vvB8vNqfG-ey8gLz-239" value="" style="endArrow=none;html=1;rounded=0;exitX=1;exitY=1;exitDx=0;exitDy=0;entryX=0.25;entryY=0;entryDx=0;entryDy=0;" parent="1" source="A7H-vvB8vNqfG-ey8gLz-224" target="A7H-vvB8vNqfG-ey8gLz-7" edge="1">
          <mxGeometry relative="1" as="geometry">
            <mxPoint x="-371" y="1440" as="sourcePoint" />
            <mxPoint x="-211" y="1440" as="targetPoint" />
          </mxGeometry>
        </mxCell>
        <mxCell id="nhMhbaeUpGgj0X5RQ8br-1" value="&lt;font style=&quot;font-size: 18px;&quot;&gt;Accommodation ID&lt;/font&gt;" style="ellipse;whiteSpace=wrap;html=1;align=center;fontStyle=4;fillColor=#dae8fc;gradientColor=#7ea6e0;strokeColor=#6c8ebf;" parent="1" vertex="1">
          <mxGeometry y="1160" width="180" height="40" as="geometry" />
        </mxCell>
        <mxCell id="nhMhbaeUpGgj0X5RQ8br-2" value="&lt;font style=&quot;font-size: 18px;&quot;&gt;Name&lt;/font&gt;" style="ellipse;whiteSpace=wrap;html=1;align=center;fillColor=#dae8fc;gradientColor=#7ea6e0;strokeColor=#6c8ebf;" parent="1" vertex="1">
          <mxGeometry x="120" y="930" width="100" height="40" as="geometry" />
        </mxCell>
        <mxCell id="nhMhbaeUpGgj0X5RQ8br-3" value="&lt;font style=&quot;font-size: 18px;&quot;&gt;Type&lt;/font&gt;" style="ellipse;whiteSpace=wrap;html=1;align=center;fillColor=#dae8fc;gradientColor=#7ea6e0;strokeColor=#6c8ebf;" parent="1" vertex="1">
          <mxGeometry x="270" y="930" width="100" height="40" as="geometry" />
        </mxCell>
        <mxCell id="nhMhbaeUpGgj0X5RQ8br-4" value="&lt;font style=&quot;font-size: 18px;&quot;&gt;Address&lt;/font&gt;" style="ellipse;whiteSpace=wrap;html=1;align=center;fillColor=#dae8fc;gradientColor=#7ea6e0;strokeColor=#6c8ebf;" parent="1" vertex="1">
          <mxGeometry x="420" y="930" width="100" height="40" as="geometry" />
        </mxCell>
        <mxCell id="nhMhbaeUpGgj0X5RQ8br-5" value="&lt;font style=&quot;font-size: 18px;&quot;&gt;City&lt;/font&gt;" style="ellipse;whiteSpace=wrap;html=1;align=center;dashed=1;fillColor=#dae8fc;gradientColor=#7ea6e0;strokeColor=#6c8ebf;" parent="1" vertex="1">
          <mxGeometry x="390" y="820" width="100" height="40" as="geometry" />
        </mxCell>
        <mxCell id="nhMhbaeUpGgj0X5RQ8br-6" value="&lt;font style=&quot;font-size: 18px;&quot;&gt;Zip Code&lt;/font&gt;" style="ellipse;whiteSpace=wrap;html=1;align=center;dashed=1;fillColor=#dae8fc;gradientColor=#7ea6e0;strokeColor=#6c8ebf;" parent="1" vertex="1">
          <mxGeometry x="540" y="850" width="100" height="40" as="geometry" />
        </mxCell>
        <mxCell id="nhMhbaeUpGgj0X5RQ8br-14" value="&lt;font style=&quot;font-size: 18px;&quot;&gt;Room Number&lt;/font&gt;" style="ellipse;whiteSpace=wrap;html=1;align=center;fillColor=#dae8fc;gradientColor=#7ea6e0;strokeColor=#6c8ebf;" parent="1" vertex="1">
          <mxGeometry x="470" y="1020" width="150" height="40" as="geometry" />
        </mxCell>
        <mxCell id="nhMhbaeUpGgj0X5RQ8br-15" value="&lt;font style=&quot;font-size: 18px;&quot;&gt;Price Per Night&lt;/font&gt;" style="ellipse;whiteSpace=wrap;html=1;align=center;fillColor=#dae8fc;gradientColor=#7ea6e0;strokeColor=#6c8ebf;" parent="1" vertex="1">
          <mxGeometry x="470" y="1090" width="130" height="40" as="geometry" />
        </mxCell>
        <mxCell id="nhMhbaeUpGgj0X5RQ8br-16" value="&lt;font style=&quot;font-size: 18px;&quot;&gt;Status&lt;/font&gt;" style="ellipse;whiteSpace=wrap;html=1;align=center;fillColor=#dae8fc;gradientColor=#7ea6e0;strokeColor=#6c8ebf;" parent="1" vertex="1">
          <mxGeometry x="380" y="1160" width="100" height="40" as="geometry" />
        </mxCell>
        <mxCell id="nhMhbaeUpGgj0X5RQ8br-21" value="" style="endArrow=none;html=1;rounded=0;entryX=0;entryY=0;entryDx=0;entryDy=0;exitX=1;exitY=0.75;exitDx=0;exitDy=0;" parent="1" source="A7H-vvB8vNqfG-ey8gLz-8" target="nhMhbaeUpGgj0X5RQ8br-16" edge="1">
          <mxGeometry relative="1" as="geometry">
            <mxPoint x="230" y="1080" as="sourcePoint" />
            <mxPoint x="350" y="1158.57" as="targetPoint" />
          </mxGeometry>
        </mxCell>
        <mxCell id="nhMhbaeUpGgj0X5RQ8br-30" value="" style="endArrow=none;html=1;rounded=0;exitX=0.75;exitY=0;exitDx=0;exitDy=0;" parent="1" source="A7H-vvB8vNqfG-ey8gLz-3" target="A7H-vvB8vNqfG-ey8gLz-209" edge="1">
          <mxGeometry relative="1" as="geometry">
            <mxPoint x="-71" y="739" as="sourcePoint" />
            <mxPoint x="50" y="460" as="targetPoint" />
          </mxGeometry>
        </mxCell>
        <mxCell id="A7H-vvB8vNqfG-ey8gLz-209" value="&lt;font style=&quot;font-size: 18px;&quot;&gt;Score ID&lt;/font&gt;" style="ellipse;whiteSpace=wrap;html=1;align=center;fontStyle=4;fillColor=#d5e8d4;gradientColor=#97d077;strokeColor=#82b366;" parent="1" vertex="1">
          <mxGeometry x="140" y="500" width="100" height="40" as="geometry" />
        </mxCell>
        <mxCell id="nhMhbaeUpGgj0X5RQ8br-33" style="edgeStyle=orthogonalEdgeStyle;rounded=0;orthogonalLoop=1;jettySize=auto;html=1;exitX=0.5;exitY=1;exitDx=0;exitDy=0;" parent="1" source="A7H-vvB8vNqfG-ey8gLz-153" target="A7H-vvB8vNqfG-ey8gLz-153" edge="1">
          <mxGeometry relative="1" as="geometry" />
        </mxCell>
        <mxCell id="nhMhbaeUpGgj0X5RQ8br-34" value="" style="endArrow=none;html=1;rounded=0;entryX=0.35;entryY=0.058;entryDx=0;entryDy=0;entryPerimeter=0;exitX=0.5;exitY=1;exitDx=0;exitDy=0;" parent="1" source="nhMhbaeUpGgj0X5RQ8br-2" target="A7H-vvB8vNqfG-ey8gLz-8" edge="1">
          <mxGeometry relative="1" as="geometry">
            <mxPoint x="60" y="990" as="sourcePoint" />
            <mxPoint x="220" y="990" as="targetPoint" />
          </mxGeometry>
        </mxCell>
        <mxCell id="nhMhbaeUpGgj0X5RQ8br-35" value="" style="endArrow=none;html=1;rounded=0;entryX=0.881;entryY=0.016;entryDx=0;entryDy=0;entryPerimeter=0;exitX=0;exitY=1;exitDx=0;exitDy=0;" parent="1" source="nhMhbaeUpGgj0X5RQ8br-3" target="A7H-vvB8vNqfG-ey8gLz-8" edge="1">
          <mxGeometry relative="1" as="geometry">
            <mxPoint x="90" y="980" as="sourcePoint" />
            <mxPoint x="250" y="980" as="targetPoint" />
          </mxGeometry>
        </mxCell>
        <mxCell id="nhMhbaeUpGgj0X5RQ8br-36" value="" style="endArrow=none;html=1;rounded=0;exitX=1;exitY=0;exitDx=0;exitDy=0;" parent="1" source="A7H-vvB8vNqfG-ey8gLz-8" target="nhMhbaeUpGgj0X5RQ8br-4" edge="1">
          <mxGeometry relative="1" as="geometry">
            <mxPoint x="270" y="1048.95" as="sourcePoint" />
            <mxPoint x="430" y="1048.95" as="targetPoint" />
          </mxGeometry>
        </mxCell>
        <mxCell id="nhMhbaeUpGgj0X5RQ8br-37" value="" style="endArrow=none;html=1;rounded=0;entryX=0;entryY=0.5;entryDx=0;entryDy=0;exitX=1;exitY=0.5;exitDx=0;exitDy=0;" parent="1" source="A7H-vvB8vNqfG-ey8gLz-8" target="nhMhbaeUpGgj0X5RQ8br-14" edge="1">
          <mxGeometry relative="1" as="geometry">
            <mxPoint x="250" y="1050" as="sourcePoint" />
            <mxPoint x="410" y="1050" as="targetPoint" />
          </mxGeometry>
        </mxCell>
        <mxCell id="nhMhbaeUpGgj0X5RQ8br-38" value="" style="endArrow=none;html=1;rounded=0;entryX=0;entryY=0.5;entryDx=0;entryDy=0;exitX=1;exitY=0.75;exitDx=0;exitDy=0;" parent="1" source="A7H-vvB8vNqfG-ey8gLz-8" target="nhMhbaeUpGgj0X5RQ8br-15" edge="1">
          <mxGeometry relative="1" as="geometry">
            <mxPoint x="260" y="1088.95" as="sourcePoint" />
            <mxPoint x="420" y="1088.95" as="targetPoint" />
          </mxGeometry>
        </mxCell>
        <mxCell id="nhMhbaeUpGgj0X5RQ8br-39" value="" style="endArrow=none;html=1;rounded=0;exitX=1;exitY=0;exitDx=0;exitDy=0;entryX=0.139;entryY=0.984;entryDx=0;entryDy=0;entryPerimeter=0;" parent="1" source="nhMhbaeUpGgj0X5RQ8br-1" target="A7H-vvB8vNqfG-ey8gLz-8" edge="1">
          <mxGeometry relative="1" as="geometry">
            <mxPoint x="120" y="1020" as="sourcePoint" />
            <mxPoint x="280" y="1020" as="targetPoint" />
          </mxGeometry>
        </mxCell>
        <mxCell id="nhMhbaeUpGgj0X5RQ8br-40" value="" style="endArrow=none;html=1;rounded=0;exitX=0.5;exitY=1;exitDx=0;exitDy=0;entryX=0.327;entryY=0.068;entryDx=0;entryDy=0;entryPerimeter=0;" parent="1" source="nhMhbaeUpGgj0X5RQ8br-5" target="nhMhbaeUpGgj0X5RQ8br-4" edge="1">
          <mxGeometry relative="1" as="geometry">
            <mxPoint x="310" y="950" as="sourcePoint" />
            <mxPoint x="470" y="950" as="targetPoint" />
          </mxGeometry>
        </mxCell>
        <mxCell id="nhMhbaeUpGgj0X5RQ8br-41" value="" style="endArrow=none;html=1;rounded=0;exitX=0;exitY=1;exitDx=0;exitDy=0;entryX=1;entryY=0;entryDx=0;entryDy=0;" parent="1" source="nhMhbaeUpGgj0X5RQ8br-6" target="nhMhbaeUpGgj0X5RQ8br-4" edge="1">
          <mxGeometry relative="1" as="geometry">
            <mxPoint x="290" y="930" as="sourcePoint" />
            <mxPoint x="450" y="930" as="targetPoint" />
          </mxGeometry>
        </mxCell>
        <mxCell id="nhMhbaeUpGgj0X5RQ8br-42" value="&lt;font style=&quot;font-size: 18px;&quot;&gt;Event ID&lt;/font&gt;" style="ellipse;whiteSpace=wrap;html=1;align=center;fontStyle=4;fillColor=#f8cecc;gradientColor=#ea6b66;strokeColor=#b85450;" parent="1" vertex="1">
          <mxGeometry x="740" y="440" width="100" height="40" as="geometry" />
        </mxCell>
        <mxCell id="nhMhbaeUpGgj0X5RQ8br-43" value="&lt;font style=&quot;font-size: 18px;&quot;&gt;Venue ID&lt;/font&gt;" style="ellipse;whiteSpace=wrap;html=1;align=center;fontStyle=4;fillColor=#f8cecc;gradientColor=#ea6b66;strokeColor=#b85450;" parent="1" vertex="1">
          <mxGeometry x="860" y="440" width="100" height="40" as="geometry" />
        </mxCell>
        <mxCell id="nhMhbaeUpGgj0X5RQ8br-44" value="&lt;font style=&quot;font-size: 18px;&quot;&gt;Name&lt;/font&gt;" style="ellipse;whiteSpace=wrap;html=1;align=center;fillColor=#f8cecc;gradientColor=#ea6b66;strokeColor=#b85450;" parent="1" vertex="1">
          <mxGeometry x="980" y="440" width="100" height="40" as="geometry" />
        </mxCell>
        <mxCell id="nhMhbaeUpGgj0X5RQ8br-45" value="&lt;font style=&quot;font-size: 18px;&quot;&gt;Round&lt;/font&gt;" style="ellipse;whiteSpace=wrap;html=1;align=center;fillColor=#f8cecc;gradientColor=#ea6b66;strokeColor=#b85450;" parent="1" vertex="1">
          <mxGeometry x="980" y="510" width="100" height="40" as="geometry" />
        </mxCell>
        <mxCell id="nhMhbaeUpGgj0X5RQ8br-46" value="&lt;font style=&quot;font-size: 18px;&quot;&gt;Start Date&lt;/font&gt;" style="ellipse;whiteSpace=wrap;html=1;align=center;fillColor=#f8cecc;gradientColor=#ea6b66;strokeColor=#b85450;" parent="1" vertex="1">
          <mxGeometry x="980" y="573" width="100" height="40" as="geometry" />
        </mxCell>
        <mxCell id="nhMhbaeUpGgj0X5RQ8br-47" value="&lt;font style=&quot;font-size: 18px;&quot;&gt;End Date&lt;/font&gt;" style="ellipse;whiteSpace=wrap;html=1;align=center;fillColor=#f8cecc;gradientColor=#ea6b66;strokeColor=#b85450;" parent="1" vertex="1">
          <mxGeometry x="980" y="640" width="100" height="40" as="geometry" />
        </mxCell>
        <mxCell id="nhMhbaeUpGgj0X5RQ8br-48" value="&lt;font style=&quot;font-size: 18px;&quot;&gt;Registration Fee&lt;/font&gt;" style="ellipse;whiteSpace=wrap;html=1;align=center;fillColor=#f8cecc;gradientColor=#ea6b66;strokeColor=#b85450;" parent="1" vertex="1">
          <mxGeometry x="960" y="710" width="140" height="40" as="geometry" />
        </mxCell>
        <mxCell id="nhMhbaeUpGgj0X5RQ8br-49" value="&lt;font style=&quot;font-size: 18px;&quot;&gt;Max Participants&lt;/font&gt;" style="ellipse;whiteSpace=wrap;html=1;align=center;fillColor=#f8cecc;gradientColor=#ea6b66;strokeColor=#b85450;" parent="1" vertex="1">
          <mxGeometry x="970" y="780" width="130" height="40" as="geometry" />
        </mxCell>
        <mxCell id="nhMhbaeUpGgj0X5RQ8br-50" value="&lt;font style=&quot;font-size: 18px;&quot;&gt;Rules&lt;/font&gt;" style="ellipse;whiteSpace=wrap;html=1;align=center;fillColor=#f8cecc;gradientColor=#ea6b66;strokeColor=#b85450;" parent="1" vertex="1">
          <mxGeometry x="980" y="840" width="100" height="40" as="geometry" />
        </mxCell>
        <mxCell id="nhMhbaeUpGgj0X5RQ8br-51" value="&lt;font style=&quot;font-size: 18px;&quot;&gt;Category&lt;/font&gt;" style="ellipse;whiteSpace=wrap;html=1;align=center;fillColor=#f8cecc;gradientColor=#ea6b66;strokeColor=#b85450;" parent="1" vertex="1">
          <mxGeometry x="870" y="840" width="100" height="40" as="geometry" />
        </mxCell>
        <mxCell id="nhMhbaeUpGgj0X5RQ8br-52" value="&lt;font style=&quot;font-size: 18px;&quot;&gt;Description&lt;/font&gt;" style="ellipse;whiteSpace=wrap;html=1;align=center;fillColor=#f8cecc;gradientColor=#ea6b66;strokeColor=#b85450;" parent="1" vertex="1">
          <mxGeometry x="740" y="840" width="100" height="40" as="geometry" />
        </mxCell>
        <mxCell id="nhMhbaeUpGgj0X5RQ8br-53" value="" style="endArrow=none;html=1;rounded=0;entryX=0.277;entryY=1.025;entryDx=0;entryDy=0;entryPerimeter=0;exitX=0.907;exitY=0.011;exitDx=0;exitDy=0;exitPerimeter=0;" parent="1" source="A7H-vvB8vNqfG-ey8gLz-2" target="nhMhbaeUpGgj0X5RQ8br-42" edge="1">
          <mxGeometry relative="1" as="geometry">
            <mxPoint x="760" y="640" as="sourcePoint" />
            <mxPoint x="920" y="640" as="targetPoint" />
          </mxGeometry>
        </mxCell>
        <mxCell id="nhMhbaeUpGgj0X5RQ8br-54" value="" style="endArrow=none;html=1;rounded=0;entryX=0.268;entryY=0.958;entryDx=0;entryDy=0;entryPerimeter=0;exitX=1;exitY=0.25;exitDx=0;exitDy=0;" parent="1" source="A7H-vvB8vNqfG-ey8gLz-2" target="nhMhbaeUpGgj0X5RQ8br-43" edge="1">
          <mxGeometry relative="1" as="geometry">
            <mxPoint x="630" y="700" as="sourcePoint" />
            <mxPoint x="790" y="700" as="targetPoint" />
          </mxGeometry>
        </mxCell>
        <mxCell id="nhMhbaeUpGgj0X5RQ8br-55" value="" style="endArrow=none;html=1;rounded=0;entryX=0;entryY=1;entryDx=0;entryDy=0;exitX=1;exitY=0.25;exitDx=0;exitDy=0;" parent="1" source="A7H-vvB8vNqfG-ey8gLz-2" target="nhMhbaeUpGgj0X5RQ8br-44" edge="1">
          <mxGeometry relative="1" as="geometry">
            <mxPoint x="750" y="582.44" as="sourcePoint" />
            <mxPoint x="910" y="582.44" as="targetPoint" />
          </mxGeometry>
        </mxCell>
        <mxCell id="nhMhbaeUpGgj0X5RQ8br-56" value="" style="endArrow=none;html=1;rounded=0;entryX=0;entryY=0.5;entryDx=0;entryDy=0;exitX=1;exitY=0.5;exitDx=0;exitDy=0;" parent="1" source="A7H-vvB8vNqfG-ey8gLz-2" target="nhMhbaeUpGgj0X5RQ8br-45" edge="1">
          <mxGeometry relative="1" as="geometry">
            <mxPoint x="740" y="620" as="sourcePoint" />
            <mxPoint x="900" y="620" as="targetPoint" />
          </mxGeometry>
        </mxCell>
        <mxCell id="nhMhbaeUpGgj0X5RQ8br-57" value="" style="endArrow=none;html=1;rounded=0;entryX=0;entryY=0.5;entryDx=0;entryDy=0;exitX=1;exitY=0.75;exitDx=0;exitDy=0;" parent="1" source="A7H-vvB8vNqfG-ey8gLz-2" target="nhMhbaeUpGgj0X5RQ8br-46" edge="1">
          <mxGeometry relative="1" as="geometry">
            <mxPoint x="760" y="618.89" as="sourcePoint" />
            <mxPoint x="920" y="618.89" as="targetPoint" />
          </mxGeometry>
        </mxCell>
        <mxCell id="nhMhbaeUpGgj0X5RQ8br-58" value="" style="endArrow=none;html=1;rounded=0;entryX=0;entryY=0.5;entryDx=0;entryDy=0;exitX=1;exitY=0.75;exitDx=0;exitDy=0;" parent="1" source="A7H-vvB8vNqfG-ey8gLz-2" target="nhMhbaeUpGgj0X5RQ8br-47" edge="1">
          <mxGeometry relative="1" as="geometry">
            <mxPoint x="680" y="673" as="sourcePoint" />
            <mxPoint x="840" y="673" as="targetPoint" />
          </mxGeometry>
        </mxCell>
        <mxCell id="nhMhbaeUpGgj0X5RQ8br-59" value="" style="endArrow=none;html=1;rounded=0;entryX=0;entryY=0;entryDx=0;entryDy=0;exitX=1;exitY=1;exitDx=0;exitDy=0;" parent="1" source="A7H-vvB8vNqfG-ey8gLz-2" target="nhMhbaeUpGgj0X5RQ8br-48" edge="1">
          <mxGeometry relative="1" as="geometry">
            <mxPoint x="660" y="708.89" as="sourcePoint" />
            <mxPoint x="820" y="708.89" as="targetPoint" />
          </mxGeometry>
        </mxCell>
        <mxCell id="nhMhbaeUpGgj0X5RQ8br-60" value="" style="endArrow=none;html=1;rounded=0;entryX=0.312;entryY=0.103;entryDx=0;entryDy=0;entryPerimeter=0;exitX=0.862;exitY=1.011;exitDx=0;exitDy=0;exitPerimeter=0;" parent="1" source="A7H-vvB8vNqfG-ey8gLz-2" target="nhMhbaeUpGgj0X5RQ8br-49" edge="1">
          <mxGeometry relative="1" as="geometry">
            <mxPoint x="710" y="720" as="sourcePoint" />
            <mxPoint x="870" y="720" as="targetPoint" />
          </mxGeometry>
        </mxCell>
        <mxCell id="nhMhbaeUpGgj0X5RQ8br-61" value="" style="endArrow=none;html=1;rounded=0;entryX=0;entryY=0;entryDx=0;entryDy=0;exitX=0.862;exitY=1.011;exitDx=0;exitDy=0;exitPerimeter=0;" parent="1" source="A7H-vvB8vNqfG-ey8gLz-2" target="nhMhbaeUpGgj0X5RQ8br-50" edge="1">
          <mxGeometry relative="1" as="geometry">
            <mxPoint x="640" y="690" as="sourcePoint" />
            <mxPoint x="800" y="690" as="targetPoint" />
          </mxGeometry>
        </mxCell>
        <mxCell id="nhMhbaeUpGgj0X5RQ8br-62" value="" style="endArrow=none;html=1;rounded=0;entryX=0.426;entryY=-0.042;entryDx=0;entryDy=0;entryPerimeter=0;exitX=0.75;exitY=1;exitDx=0;exitDy=0;" parent="1" source="A7H-vvB8vNqfG-ey8gLz-2" target="nhMhbaeUpGgj0X5RQ8br-51" edge="1">
          <mxGeometry relative="1" as="geometry">
            <mxPoint x="650" y="700" as="sourcePoint" />
            <mxPoint x="810" y="700" as="targetPoint" />
          </mxGeometry>
        </mxCell>
        <mxCell id="nhMhbaeUpGgj0X5RQ8br-63" value="" style="endArrow=none;html=1;rounded=0;entryX=0.401;entryY=-0.019;entryDx=0;entryDy=0;entryPerimeter=0;exitX=0.613;exitY=1.033;exitDx=0;exitDy=0;exitPerimeter=0;" parent="1" source="A7H-vvB8vNqfG-ey8gLz-2" target="nhMhbaeUpGgj0X5RQ8br-52" edge="1">
          <mxGeometry relative="1" as="geometry">
            <mxPoint x="650" y="690" as="sourcePoint" />
            <mxPoint x="810" y="690" as="targetPoint" />
          </mxGeometry>
        </mxCell>
        <mxCell id="nhMhbaeUpGgj0X5RQ8br-64" value="&lt;font style=&quot;font-size: 18px;&quot;&gt;Payment ID&lt;/font&gt;" style="ellipse;whiteSpace=wrap;html=1;align=center;fontStyle=4;fillColor=#a20025;strokeColor=#6F0000;fontColor=#ffffff;" parent="1" vertex="1">
          <mxGeometry x="740" y="1360" width="110" height="40" as="geometry" />
        </mxCell>
        <mxCell id="nhMhbaeUpGgj0X5RQ8br-65" value="&lt;font style=&quot;font-size: 18px;&quot;&gt;User ID&lt;/font&gt;" style="ellipse;whiteSpace=wrap;html=1;align=center;fontStyle=4;fillColor=#a20025;fontColor=#ffffff;strokeColor=#6F0000;" parent="1" vertex="1">
          <mxGeometry x="880" y="1360" width="100" height="40" as="geometry" />
        </mxCell>
        <mxCell id="nhMhbaeUpGgj0X5RQ8br-66" value="&lt;font style=&quot;font-size: 18px;&quot;&gt;Event ID&lt;/font&gt;" style="ellipse;whiteSpace=wrap;html=1;align=center;fontStyle=4;fillColor=#a20025;fontColor=#ffffff;strokeColor=#6F0000;" parent="1" vertex="1">
          <mxGeometry x="980" y="1400" width="100" height="40" as="geometry" />
        </mxCell>
        <mxCell id="nhMhbaeUpGgj0X5RQ8br-67" value="&lt;font style=&quot;font-size: 18px;&quot;&gt;Accommodation ID&lt;/font&gt;" style="ellipse;whiteSpace=wrap;html=1;align=center;fontStyle=4;fillColor=#a20025;fontColor=#ffffff;strokeColor=#6F0000;" parent="1" vertex="1">
          <mxGeometry x="910" y="1480" width="170" height="40" as="geometry" />
        </mxCell>
        <mxCell id="nhMhbaeUpGgj0X5RQ8br-68" value="&lt;font style=&quot;font-size: 18px;&quot;&gt;Sponsorship ID&lt;/font&gt;" style="ellipse;whiteSpace=wrap;html=1;align=center;fontStyle=4;fillColor=#a20025;fontColor=#ffffff;strokeColor=#6F0000;" parent="1" vertex="1">
          <mxGeometry x="940" y="1560" width="140" height="40" as="geometry" />
        </mxCell>
        <mxCell id="nhMhbaeUpGgj0X5RQ8br-69" value="&lt;font style=&quot;font-size: 18px;&quot;&gt;Payment Type&lt;/font&gt;" style="ellipse;whiteSpace=wrap;html=1;align=center;fillColor=#a20025;fontColor=#ffffff;strokeColor=#6F0000;" parent="1" vertex="1">
          <mxGeometry x="940" y="1630" width="140" height="40" as="geometry" />
        </mxCell>
        <mxCell id="nhMhbaeUpGgj0X5RQ8br-70" value="&lt;font style=&quot;font-size: 18px;&quot;&gt;Status&lt;/font&gt;" style="ellipse;whiteSpace=wrap;html=1;align=center;fillColor=#a20025;fontColor=#ffffff;strokeColor=#6F0000;" parent="1" vertex="1">
          <mxGeometry x="790" y="1640" width="100" height="40" as="geometry" />
        </mxCell>
        <mxCell id="nhMhbaeUpGgj0X5RQ8br-71" value="&lt;font style=&quot;font-size: 18px;&quot;&gt;Payment Method&lt;/font&gt;" style="ellipse;whiteSpace=wrap;html=1;align=center;fillColor=#a20025;fontColor=#ffffff;strokeColor=#6F0000;" parent="1" vertex="1">
          <mxGeometry x="630" y="1640" width="150" height="40" as="geometry" />
        </mxCell>
        <mxCell id="nhMhbaeUpGgj0X5RQ8br-72" value="&lt;font style=&quot;font-size: 18px;&quot;&gt;Payment Date&lt;/font&gt;" style="ellipse;whiteSpace=wrap;html=1;align=center;fillColor=#a20025;fontColor=#ffffff;strokeColor=#6F0000;fontSize=12;fontStyle=0" parent="1" vertex="1">
          <mxGeometry x="490" y="1640" width="128" height="40" as="geometry" />
        </mxCell>
        <mxCell id="nhMhbaeUpGgj0X5RQ8br-73" value="&lt;font style=&quot;font-size: 18px;&quot;&gt;Amount&lt;/font&gt;" style="ellipse;whiteSpace=wrap;html=1;align=center;fillColor=#a20025;fontColor=#ffffff;strokeColor=#6F0000;" parent="1" vertex="1">
          <mxGeometry x="410" y="1590" width="100" height="40" as="geometry" />
        </mxCell>
        <mxCell id="nhMhbaeUpGgj0X5RQ8br-74" value="" style="endArrow=none;html=1;rounded=0;entryX=0;entryY=1;entryDx=0;entryDy=0;exitX=0.75;exitY=0;exitDx=0;exitDy=0;" parent="1" source="A7H-vvB8vNqfG-ey8gLz-6" target="nhMhbaeUpGgj0X5RQ8br-64" edge="1">
          <mxGeometry relative="1" as="geometry">
            <mxPoint x="620" y="1450" as="sourcePoint" />
            <mxPoint x="780" y="1450" as="targetPoint" />
          </mxGeometry>
        </mxCell>
        <mxCell id="nhMhbaeUpGgj0X5RQ8br-75" value="" style="endArrow=none;html=1;rounded=0;entryX=0;entryY=0.5;entryDx=0;entryDy=0;exitX=0.86;exitY=-0.021;exitDx=0;exitDy=0;exitPerimeter=0;" parent="1" source="A7H-vvB8vNqfG-ey8gLz-6" target="nhMhbaeUpGgj0X5RQ8br-65" edge="1">
          <mxGeometry relative="1" as="geometry">
            <mxPoint x="620" y="1450" as="sourcePoint" />
            <mxPoint x="780" y="1450" as="targetPoint" />
          </mxGeometry>
        </mxCell>
        <mxCell id="nhMhbaeUpGgj0X5RQ8br-76" value="" style="endArrow=none;html=1;rounded=0;entryX=0;entryY=0.5;entryDx=0;entryDy=0;exitX=1;exitY=0;exitDx=0;exitDy=0;" parent="1" source="A7H-vvB8vNqfG-ey8gLz-6" target="nhMhbaeUpGgj0X5RQ8br-66" edge="1">
          <mxGeometry relative="1" as="geometry">
            <mxPoint x="620" y="1450" as="sourcePoint" />
            <mxPoint x="780" y="1450" as="targetPoint" />
          </mxGeometry>
        </mxCell>
        <mxCell id="nhMhbaeUpGgj0X5RQ8br-77" value="" style="endArrow=none;html=1;rounded=0;entryX=0;entryY=0.5;entryDx=0;entryDy=0;exitX=1;exitY=0.25;exitDx=0;exitDy=0;" parent="1" source="A7H-vvB8vNqfG-ey8gLz-6" target="nhMhbaeUpGgj0X5RQ8br-67" edge="1">
          <mxGeometry relative="1" as="geometry">
            <mxPoint x="620" y="1450" as="sourcePoint" />
            <mxPoint x="780" y="1450" as="targetPoint" />
          </mxGeometry>
        </mxCell>
        <mxCell id="nhMhbaeUpGgj0X5RQ8br-78" value="" style="endArrow=none;html=1;rounded=0;entryX=0;entryY=0;entryDx=0;entryDy=0;exitX=1;exitY=0.5;exitDx=0;exitDy=0;" parent="1" source="A7H-vvB8vNqfG-ey8gLz-6" target="nhMhbaeUpGgj0X5RQ8br-68" edge="1">
          <mxGeometry relative="1" as="geometry">
            <mxPoint x="620" y="1450" as="sourcePoint" />
            <mxPoint x="780" y="1450" as="targetPoint" />
          </mxGeometry>
        </mxCell>
        <mxCell id="nhMhbaeUpGgj0X5RQ8br-79" value="" style="endArrow=none;html=1;rounded=0;exitX=1;exitY=0.75;exitDx=0;exitDy=0;" parent="1" source="A7H-vvB8vNqfG-ey8gLz-6" target="nhMhbaeUpGgj0X5RQ8br-69" edge="1">
          <mxGeometry relative="1" as="geometry">
            <mxPoint x="620" y="1450" as="sourcePoint" />
            <mxPoint x="780" y="1450" as="targetPoint" />
          </mxGeometry>
        </mxCell>
        <mxCell id="nhMhbaeUpGgj0X5RQ8br-80" value="" style="endArrow=none;html=1;rounded=0;entryX=0.306;entryY=0;entryDx=0;entryDy=0;entryPerimeter=0;exitX=1;exitY=1;exitDx=0;exitDy=0;" parent="1" source="A7H-vvB8vNqfG-ey8gLz-6" target="nhMhbaeUpGgj0X5RQ8br-70" edge="1">
          <mxGeometry relative="1" as="geometry">
            <mxPoint x="660" y="1470" as="sourcePoint" />
            <mxPoint x="820" y="1470" as="targetPoint" />
          </mxGeometry>
        </mxCell>
        <mxCell id="nhMhbaeUpGgj0X5RQ8br-81" value="" style="endArrow=none;html=1;rounded=0;exitX=0.75;exitY=1;exitDx=0;exitDy=0;" parent="1" source="A7H-vvB8vNqfG-ey8gLz-6" edge="1">
          <mxGeometry relative="1" as="geometry">
            <mxPoint x="660" y="1470" as="sourcePoint" />
            <mxPoint x="710" y="1640" as="targetPoint" />
          </mxGeometry>
        </mxCell>
        <mxCell id="nhMhbaeUpGgj0X5RQ8br-82" value="" style="endArrow=none;html=1;rounded=0;entryX=1;entryY=0;entryDx=0;entryDy=0;exitX=0.391;exitY=1.036;exitDx=0;exitDy=0;exitPerimeter=0;" parent="1" source="A7H-vvB8vNqfG-ey8gLz-6" target="nhMhbaeUpGgj0X5RQ8br-72" edge="1">
          <mxGeometry relative="1" as="geometry">
            <mxPoint x="660" y="1470" as="sourcePoint" />
            <mxPoint x="820" y="1470" as="targetPoint" />
          </mxGeometry>
        </mxCell>
        <mxCell id="nhMhbaeUpGgj0X5RQ8br-83" value="" style="endArrow=none;html=1;rounded=0;exitX=1;exitY=0;exitDx=0;exitDy=0;" parent="1" source="nhMhbaeUpGgj0X5RQ8br-73" edge="1">
          <mxGeometry relative="1" as="geometry">
            <mxPoint x="660" y="1470" as="sourcePoint" />
            <mxPoint x="620" y="1570" as="targetPoint" />
          </mxGeometry>
        </mxCell>
      </root>
    </mxGraphModel>
  </diagram>
</mxfile>
